<?xml version="1.0" encoding="UTF-8" standalone="no"?>
<!-- Created with Inkscape (http://www.inkscape.org/) -->

<svg
   xmlns:dc="http://purl.org/dc/elements/1.1/"
   xmlns:cc="http://creativecommons.org/ns#"
   xmlns:rdf="http://www.w3.org/1999/02/22-rdf-syntax-ns#"
   xmlns:svg="http://www.w3.org/2000/svg"
   xmlns="http://www.w3.org/2000/svg"
   xmlns:xlink="http://www.w3.org/1999/xlink"
   xmlns:sodipodi="http://sodipodi.sourceforge.net/DTD/sodipodi-0.dtd"
   xmlns:inkscape="http://www.inkscape.org/namespaces/inkscape"
   width="210mm"
   height="297mm"
   viewBox="0 0 210 297"
   version="1.1"
   id="svg8"
   inkscape:version="0.92.5 (2060ec1f9f, 2020-04-08)"
   sodipodi:docname="wave.svg"
   inkscape:export-filename="/home/elp/Desktop/wave-logo/wave-logo-plain.png"
   inkscape:export-xdpi="922.42694"
   inkscape:export-ydpi="922.42694">
  <defs
     id="defs2">
    <linearGradient
       inkscape:collect="always"
       id="linearGradient4825">
      <stop
         style="stop-color:#f72a30;stop-opacity:1;"
         offset="0"
         id="stop4821" />
      <stop
         style="stop-color:#f72a30;stop-opacity:0;"
         offset="1"
         id="stop4823" />
    </linearGradient>
    <linearGradient
       inkscape:collect="always"
       id="linearGradient4784">
      <stop
         style="stop-color:#fe000b;stop-opacity:1"
         offset="0"
         id="stop4793" />
      <stop
         style="stop-color:#6000ff;stop-opacity:1"
         offset="1"
         id="stop4795" />
    </linearGradient>
    <linearGradient
       inkscape:collect="always"
       xlink:href="#linearGradient4784"
       id="linearGradient4766"
       gradientUnits="userSpaceOnUse"
       x1="2"
       y1="12"
       x2="22"
       y2="12"
       gradientTransform="translate(16.289698,-8.5782492)" />
    <linearGradient
       inkscape:collect="always"
       xlink:href="#linearGradient4784"
       id="linearGradient4857"
       gradientUnits="userSpaceOnUse"
       gradientTransform="translate(0.74189574,-7.1782484)"
       x1="2"
       y1="12"
       x2="22"
       y2="12" />
    <linearGradient
       inkscape:collect="always"
       xlink:href="#linearGradient4825"
       id="linearGradient4827"
       x1="27.588165"
       y1="173.74099"
       x2="58.491437"
       y2="173.74099"
       gradientUnits="userSpaceOnUse" />
    <style
       id="style10464"
       type="text/css">
      @keyframes rotate360 {
        from { transform: rotate(0deg); }
        to   { transform: rotate(360deg); }
      }
      @-moz-keyframes rotate360 {
        from { -moz-transform: rotate(0deg); }
        to   { -moz-transform: rotate(360deg); }
      }
      @-webkit-keyframes rotate360 {
        from { -webkit-transform: rotate(0deg); }
        to   { -webkit-transform: rotate(360deg); }
      }

      .rotate_vert {
         animation: rotate360 5s linear infinite;
        -moz-animation: rotate360 5s linear infinite;
        -webkit-animation: rotate360 5s linear infinite;
      }

      .object3D { stroke: #555555; fill: #eeeeee ; stroke-width: 1 }
    </style>
    <path
       transform="rotate (25)"
       id="slice1"
       d="M -23.3066 -15 L -23.3066 15 c 0 5.87367 5.87367 8.30662 8.30662 8.30662 L 15 23.3066 c 5.87367 0 8.30662 -5.87367 8.30662 -8.30662 L 23.3066 -15 c 0 -5.87367 -5.87367 -8.30662 -8.30662 -8.30662 L -15 -23.3066 c -5.87367 0 -8.30662 5.87367 -8.30662 8.30662 z" />
    <path
       transform="rotate (25)"
       id="slice2"
       d="M -29.1774 -15 L -29.1774 15 c 0 10.025 10.025 14.1774 14.1774 14.1774 L 15 29.1774 c 10.025 0 14.1774 -10.025 14.1774 -14.1774 L 29.1774 -15 c 0 -10.025 -10.025 -14.1774 -14.1774 -14.1774 L -15 -29.1774 c -10.025 0 -14.1774 10.025 -14.1774 14.1774 z" />
    <path
       transform="rotate (25)"
       id="slice3"
       d="M -33.0278 -15 L -33.0278 15 c 0 12.7475 12.7475 18.0278 18.0278 18.0278 L 15 33.0278 c 12.7475 0 18.0278 -12.7475 18.0278 -18.0278 L 33.0278 -15 c 0 -12.7475 -12.7475 -18.0278 -18.0278 -18.0278 L -15 -33.0278 c -12.7475 0 -18.0278 12.7475 -18.0278 18.0278 z" />
    <path
       transform="rotate (25)"
       id="slice4"
       d="M -36 -15 L -36 15 c 0 14.8492 14.8492 21 21 21 L 15 36 c 14.8492 0 21 -14.8492 21 -21 L 36 -15 c 0 -14.8492 -14.8492 -21 -21 -21 L -15 -36 c -14.8492 0 -21 14.8492 -21 21 z" />
    <path
       transform="rotate (25)"
       id="slice5"
       d="M -38.4307 -15 L -38.4307 15 c 0 16.568 16.568 23.4307 23.4307 23.4307 L 15 38.4307 c 16.568 0 23.4307 -16.568 23.4307 -23.4307 L 38.4307 -15 c 0 -16.568 -16.568 -23.4307 -23.4307 -23.4307 L -15 -38.4307 c -16.568 0 -23.4307 16.568 -23.4307 23.4307 z" />
    <path
       transform="rotate (25)"
       id="slice6"
       d="M -40.4755 -15 L -40.4755 15 c 0 18.0139 18.0139 25.4755 25.4755 25.4755 L 15 40.4755 c 18.0139 0 25.4755 -18.0139 25.4755 -25.4755 L 40.4755 -15 c 0 -18.0139 -18.0139 -25.4755 -25.4755 -25.4755 L -15 -40.4755 c -18.0139 0 -25.4755 18.0139 -25.4755 25.4755 z" />
    <path
       transform="rotate (25)"
       id="slice7"
       d="M -42.2213 -15 L -42.2213 15 c 0 19.2484 19.2484 27.2213 27.2213 27.2213 L 15 42.2213 c 19.2484 0 27.2213 -19.2484 27.2213 -27.2213 L 42.2213 -15 c 0 -19.2484 -19.2484 -27.2213 -27.2213 -27.2213 L -15 -42.2213 c -19.2484 0 -27.2213 19.2484 -27.2213 27.2213 z" />
    <path
       transform="rotate (25)"
       id="slice8"
       d="M -43.7228 -15 L -43.7228 15 c 0 20.3101 20.3101 28.7228 28.7228 28.7228 L 15 43.7228 c 20.3101 0 28.7228 -20.3101 28.7228 -28.7228 L 43.7228 -15 c 0 -20.3101 -20.3101 -28.7228 -28.7228 -28.7228 L -15 -43.7228 c -20.3101 0 -28.7228 20.3101 -28.7228 28.7228 z" />
    <path
       transform="rotate (25)"
       id="slice9"
       d="M -45.0167 -15 L -45.0167 15 c 0 21.225 21.225 30.0167 30.0167 30.0167 L 15 45.0167 c 21.225 0 30.0167 -21.225 30.0167 -30.0167 L 45.0167 -15 c 0 -21.225 -21.225 -30.0167 -30.0167 -30.0167 L -15 -45.0167 c -21.225 0 -30.0167 21.225 -30.0167 30.0167 z" />
    <path
       transform="rotate (25)"
       id="slice10"
       d="M -46.1288 -15 L -46.1288 15 c 0 22.0114 22.0114 31.1288 31.1288 31.1288 L 15 46.1288 c 22.0114 0 31.1288 -22.0114 31.1288 -31.1288 L 46.1288 -15 c 0 -22.0114 -22.0114 -31.1288 -31.1288 -31.1288 L -15 -46.1288 c -22.0114 0 -31.1288 22.0114 -31.1288 31.1288 z" />
    <path
       transform="rotate (25)"
       id="slice11"
       d="M -47.078 -15 L -47.078 15 c 0 22.6826 22.6826 32.078 32.078 32.078 L 15 47.078 c 22.6826 0 32.078 -22.6826 32.078 -32.078 L 47.078 -15 c 0 -22.6826 -22.6826 -32.078 -32.078 -32.078 L -15 -47.078 c -22.6826 0 -32.078 22.6826 -32.078 32.078 z" />
    <path
       transform="rotate (25)"
       id="slice12"
       d="M -47.8786 -15 L -47.8786 15 c 0 23.2487 23.2487 32.8786 32.8786 32.8786 L 15 47.8786 c 23.2487 0 32.8786 -23.2487 32.8786 -32.8786 L 47.8786 -15 c 0 -23.2487 -23.2487 -32.8786 -32.8786 -32.8786 L -15 -47.8786 c -23.2487 0 -32.8786 23.2487 -32.8786 32.8786 z" />
    <path
       transform="rotate (25)"
       id="slice13"
       d="M -48.541 -15 L -48.541 15 c 0 23.7171 23.7171 33.541 33.541 33.541 L 15 48.541 c 23.7171 0 33.541 -23.7171 33.541 -33.541 L 48.541 -15 c 0 -23.7171 -23.7171 -33.541 -33.541 -33.541 L -15 -48.541 c -23.7171 0 -33.541 23.7171 -33.541 33.541 z" />
    <path
       transform="rotate (25)"
       id="slice14"
       d="M -49.0735 -15 L -49.0735 15 c 0 24.0936 24.0936 34.0735 34.0735 34.0735 L 15 49.0735 c 24.0936 0 34.0735 -24.0936 34.0735 -34.0735 L 49.0735 -15 c 0 -24.0936 -24.0936 -34.0735 -34.0735 -34.0735 L -15 -49.0735 c -24.0936 0 -34.0735 24.0936 -34.0735 34.0735 z" />
    <path
       transform="rotate (25)"
       id="slice15"
       d="M -49.4819 -15 L -49.4819 15 c 0 24.3824 24.3824 34.4819 34.4819 34.4819 L 15 49.4819 c 24.3824 0 34.4819 -24.3824 34.4819 -34.4819 L 49.4819 -15 c 0 -24.3824 -24.3824 -34.4819 -34.4819 -34.4819 L -15 -49.4819 c -24.3824 0 -34.4819 24.3824 -34.4819 34.4819 z" />
    <path
       transform="rotate (25)"
       id="slice16"
       d="M -49.7707 -15 L -49.7707 15 c 0 24.5866 24.5866 34.7707 34.7707 34.7707 L 15 49.7707 c 24.5866 0 34.7707 -24.5866 34.7707 -34.7707 L 49.7707 -15 c 0 -24.5866 -24.5866 -34.7707 -34.7707 -34.7707 L -15 -49.7707 c -24.5866 0 -34.7707 24.5866 -34.7707 34.7707 z" />
    <path
       transform="rotate (25)"
       id="slice17"
       d="M -49.9428 -15 L -49.9428 15 c 0 24.7083 24.7083 34.9428 34.9428 34.9428 L 15 49.9428 c 24.7083 0 34.9428 -24.7083 34.9428 -34.9428 L 49.9428 -15 c 0 -24.7083 -24.7083 -34.9428 -34.9428 -34.9428 L -15 -49.9428 c -24.7083 0 -34.9428 24.7083 -34.9428 34.9428 z" />
    <path
       transform="rotate (25)"
       id="slice18"
       d="M -50 -15 L -50 15 c 0 24.7487 24.7487 35 35 35 L 15 50 c 24.7487 0 35 -24.7487 35 -35 L 50 -15 c 0 -24.7487 -24.7487 -35 -35 -35 L -15 -50 c -24.7487 0 -35 24.7487 -35 35 z" />
    <style
       id="style11178"
       type="text/css">
      @keyframes rotate360 {
        from { transform: rotate(0deg); }
        to   { transform: rotate(360deg); }
      }
      @-moz-keyframes rotate360 {
        from { -moz-transform: rotate(0deg); }
        to   { -moz-transform: rotate(360deg); }
      }
      @-webkit-keyframes rotate360 {
        from { -webkit-transform: rotate(0deg); }
        to   { -webkit-transform: rotate(360deg); }
      }

      .rotate_vert {
         animation: rotate360 10s linear infinite;
        -moz-animation: rotate360 10s linear infinite;
        -webkit-animation: rotate360 10s linear infinite;
      }

      .rotate_horiz {
         animation: rotate360 10s linear infinite;
         transform-origin: 50% 50%;
        -moz-animation: rotate360 10s linear infinite;
        -moz-transform-origin: 50% 50%;
        -webkit-animation: rotate360 10s linear infinite;
        -webkit-transform-origin: 50% 50%;
      }

      .object3D { stroke: #555555; fill: #eeeeee ; stroke-width: 1 }
    </style>
    <path
       transform="rotate (65)"
       id="slice1-0"
       d="M -38.8406 -35 L -38.8406 35 c 0 2.7157 2.7157 3.84057 3.84057 3.84057 L 35 38.8406 c 2.7157 0 3.84057 -2.7157 3.84057 -3.84057 L 38.8406 -35 c 0 -2.7157 -2.7157 -3.84057 -3.84057 -3.84057 L -35 -38.8406 c -2.7157 0 -3.84057 2.7157 -3.84057 3.84057 z M 35 -15 L 35 15 c 0 14.1421 -14.1421 20 -20 20 L -15 35 c -14.1421 0 -20 -14.1421 -20 -20 L -35 -15 c 0 -14.1421 14.1421 -20 20 -20 L 15 -35 c 14.1421 0 20 14.1421 20 20 z" />
    <path
       transform="rotate (65)"
       id="slice2-6"
       d="M -41.5383 -35 L -41.5383 35 c 0 4.62331 4.62331 6.53835 6.53835 6.53835 L 35 41.5383 c 4.62331 0 6.53835 -4.62331 6.53835 -6.53835 L 41.5383 -35 c 0 -4.62331 -4.62331 -6.53835 -6.53835 -6.53835 L -35 -41.5383 c -4.62331 0 -6.53835 4.62331 -6.53835 6.53835 z M 35 -15 L 35 15 c 0 14.1421 -14.1421 20 -20 20 L -15 35 c -14.1421 0 -20 -14.1421 -20 -20 L -35 -15 c 0 -14.1421 14.1421 -20 20 -20 L 15 -35 c 14.1421 0 20 14.1421 20 20 z" />
    <path
       transform="rotate (65)"
       id="slice3-1"
       d="M -43.2916 -35 L -43.2916 35 c 0 5.86302 5.86302 8.29156 8.29156 8.29156 L 35 43.2916 c 5.86302 0 8.29156 -5.86302 8.29156 -8.29156 L 43.2916 -35 c 0 -5.86302 -5.86302 -8.29156 -8.29156 -8.29156 L -35 -43.2916 c -5.86302 0 -8.29156 5.86302 -8.29156 8.29156 z M 35 -15 L 35 15 c 0 14.1421 -14.1421 20 -20 20 L -15 35 c -14.1421 0 -20 -14.1421 -20 -20 L -35 -15 c 0 -14.1421 14.1421 -20 20 -20 L 15 -35 c 14.1421 0 20 14.1421 20 20 z" />
    <path
       transform="rotate (65)"
       id="slice4-5"
       d="M -44.6307 -35 L -44.6307 35 c 0 6.80992 6.80992 9.63068 9.63068 9.63068 L 35 44.6307 c 6.80992 0 9.63068 -6.80992 9.63068 -9.63068 L 44.6307 -35 c 0 -6.80992 -6.80992 -9.63068 -9.63068 -9.63068 L -35 -44.6307 c -6.80992 0 -9.63068 6.80992 -9.63068 9.63068 z M 35 -15 L 35 15 c 0 14.1421 -14.1421 20 -20 20 L -15 35 c -14.1421 0 -20 -14.1421 -20 -20 L -35 -15 c 0 -14.1421 14.1421 -20 20 -20 L 15 -35 c 14.1421 0 20 14.1421 20 20 z" />
    <path
       transform="rotate (65)"
       id="slice5-9"
       d="M -45.7121 -35 L -45.7121 35 c 0 7.57463 7.57463 10.7121 10.7121 10.7121 L 35 45.7121 c 7.57463 0 10.7121 -7.57463 10.7121 -10.7121 L 45.7121 -35 c 0 -7.57463 -7.57463 -10.7121 -10.7121 -10.7121 L -35 -45.7121 c -7.57463 0 -10.7121 7.57463 -10.7121 10.7121 z M 35 -15 L 35 15 c 0 14.1421 -14.1421 20 -20 20 L -15 35 c -14.1421 0 -20 -14.1421 -20 -20 L -35 -15 c 0 -14.1421 14.1421 -20 20 -20 L 15 -35 c 14.1421 0 20 14.1421 20 20 z" />
    <path
       transform="rotate (65)"
       id="slice6-4"
       d="M -46.6082 -35 L -46.6082 35 c 0 8.20823 8.20823 11.6082 11.6082 11.6082 L 35 46.6082 c 8.20823 0 11.6082 -8.20823 11.6082 -11.6082 L 46.6082 -35 c 0 -8.20823 -8.20823 -11.6082 -11.6082 -11.6082 L -35 -46.6082 c -8.20823 0 -11.6082 8.20823 -11.6082 11.6082 z M 35 -15 L 35 15 c 0 14.1421 -14.1421 20 -20 20 L -15 35 c -14.1421 0 -20 -14.1421 -20 -20 L -35 -15 c 0 -14.1421 14.1421 -20 20 -20 L 15 -35 c 14.1421 0 20 14.1421 20 20 z" />
    <path
       transform="rotate (65)"
       id="slice7-9"
       d="M -47.3592 -35 L -47.3592 35 c 0 8.73928 8.73928 12.3592 12.3592 12.3592 L 35 47.3592 c 8.73928 0 12.3592 -8.73928 12.3592 -12.3592 L 47.3592 -35 c 0 -8.73928 -8.73928 -12.3592 -12.3592 -12.3592 L -35 -47.3592 c -8.73928 0 -12.3592 8.73928 -12.3592 12.3592 z M 37.958 -35 L 37.958 35 c 0 2.09165 -2.09165 2.95804 -2.95804 2.95804 L -35 37.958 c -2.09165 0 -2.95804 -2.09165 -2.95804 -2.95804 L -37.958 -35 c 0 -2.09165 2.09165 -2.95804 2.95804 -2.95804 L 35 -37.958 c 2.09165 0 2.95804 2.09165 2.95804 2.95804 z" />
    <path
       transform="rotate (65)"
       id="slice8-0"
       d="M -47.9904 -35 L -47.9904 35 c 0 9.18559 9.18559 12.9904 12.9904 12.9904 L 35 47.9904 c 9.18559 0 12.9904 -9.18559 12.9904 -12.9904 L 47.9904 -35 c 0 -9.18559 -9.18559 -12.9904 -12.9904 -12.9904 L -35 -47.9904 c -9.18559 0 -12.9904 9.18559 -12.9904 12.9904 z M 39.9749 -35 L 39.9749 35 c 0 3.51781 -3.51781 4.97494 -4.97494 4.97494 L -35 39.9749 c -3.51781 0 -4.97494 -3.51781 -4.97494 -4.97494 L -39.9749 -35 c 0 -3.51781 3.51781 -4.97494 4.97494 -4.97494 L 35 -39.9749 c 3.51781 0 4.97494 3.51781 4.97494 4.97494 z" />
    <path
       transform="rotate (65)"
       id="slice9-9"
       d="M -48.5185 -35 L -48.5185 35 c 0 9.55903 9.55903 13.5185 13.5185 13.5185 L 35 48.5185 c 9.55903 0 13.5185 -9.55903 13.5185 -13.5185 L 48.5185 -35 c 0 -9.55903 -9.55903 -13.5185 -13.5185 -13.5185 L -35 -48.5185 c -9.55903 0 -13.5185 9.55903 -13.5185 13.5185 z M 41.2249 -35 L 41.2249 35 c 0 4.4017 -4.4017 6.22495 -6.22495 6.22495 L -35 41.2249 c -4.4017 0 -6.22495 -4.4017 -6.22495 -6.22495 L -41.2249 -35 c 0 -4.4017 4.4017 -6.22495 6.22495 -6.22495 L 35 -41.2249 c 4.4017 0 6.22495 4.4017 6.22495 6.22495 z" />
    <path
       transform="rotate (65)"
       id="slice10-1"
       d="M -48.9553 -35 L -48.9553 35 c 0 9.86788 9.86788 13.9553 13.9553 13.9553 L 35 48.9553 c 9.86788 0 13.9553 -9.86788 13.9553 -13.9553 L 48.9553 -35 c 0 -9.86788 -9.86788 -13.9553 -13.9553 -13.9553 L -35 -48.9553 c -9.86788 0 -13.9553 9.86788 -13.9553 13.9553 z M 42.1239 -35 L 42.1239 35 c 0 5.03736 -5.03736 7.1239 -7.1239 7.1239 L -35 42.1239 c -5.03736 0 -7.1239 -5.03736 -7.1239 -7.1239 L -42.1239 -35 c 0 -5.03736 5.03736 -7.1239 7.1239 -7.1239 L 35 -42.1239 c 5.03736 0 7.1239 5.03736 7.1239 7.1239 z" />
    <path
       transform="rotate (65)"
       id="slice11-7"
       d="M -49.3091 -35 L -49.3091 35 c 0 10.1181 10.1181 14.3091 14.3091 14.3091 L 35 49.3091 c 10.1181 0 14.3091 -10.1181 14.3091 -14.3091 L 49.3091 -35 c 0 -10.1181 -10.1181 -14.3091 -14.3091 -14.3091 L -35 -49.3091 c -10.1181 0 -14.3091 10.1181 -14.3091 14.3091 z M 42.7942 -35 L 42.7942 35 c 0 5.51135 -5.51135 7.79423 -7.79423 7.79423 L -35 42.7942 c -5.51135 0 -7.79423 -5.51135 -7.79423 -7.79423 L -42.7942 -35 c 0 -5.51135 5.51135 -7.79423 7.79423 -7.79423 L 35 -42.7942 c 5.51135 0 7.79423 5.51135 7.79423 7.79423 z" />
    <path
       transform="rotate (65)"
       id="slice12-7"
       d="M -49.586 -35 L -49.586 35 c 0 10.3138 10.3138 14.586 14.586 14.586 L 35 49.586 c 10.3138 0 14.586 -10.3138 14.586 -14.586 L 49.586 -35 c 0 -10.3138 -10.3138 -14.586 -14.586 -14.586 L -35 -49.586 c -10.3138 0 -14.586 10.3138 -14.586 14.586 z M 43.2916 -35 L 43.2916 35 c 0 5.86302 -5.86302 8.29156 -8.29156 8.29156 L -35 43.2916 c -5.86302 0 -8.29156 -5.86302 -8.29156 -8.29156 L -43.2916 -35 c 0 -5.86302 5.86302 -8.29156 8.29156 -8.29156 L 35 -43.2916 c 5.86302 0 8.29156 5.86302 8.29156 8.29156 z" />
    <path
       transform="rotate (65)"
       id="slice13-1"
       d="M -49.7902 -35 L -49.7902 35 c 0 10.4583 10.4583 14.7902 14.7902 14.7902 L 35 49.7902 c 10.4583 0 14.7902 -10.4583 14.7902 -14.7902 L 49.7902 -35 c 0 -10.4583 -10.4583 -14.7902 -14.7902 -14.7902 L -35 -49.7902 c -10.4583 0 -14.7902 10.4583 -14.7902 14.7902 z M 43.6458 -35 L 43.6458 35 c 0 6.11351 -6.11351 8.64581 -8.64581 8.64581 L -35 43.6458 c -6.11351 0 -8.64581 -6.11351 -8.64581 -8.64581 L -43.6458 -35 c 0 -6.11351 6.11351 -8.64581 8.64581 -8.64581 L 35 -43.6458 c 6.11351 0 8.64581 6.11351 8.64581 8.64581 z" />
    <path
       transform="rotate (65)"
       id="slice14-1"
       d="M -49.9248 -35 L -49.9248 35 c 0 10.5534 10.5534 14.9248 14.9248 14.9248 L 35 49.9248 c 10.5534 0 14.9248 -10.5534 14.9248 -14.9248 L 49.9248 -35 c 0 -10.5534 -10.5534 -14.9248 -14.9248 -14.9248 L -35 -49.9248 c -10.5534 0 -14.9248 10.5534 -14.9248 14.9248 z M 43.8741 -35 L 43.8741 35 c 0 6.27495 -6.27495 8.87412 -8.87412 8.87412 L -35 43.8741 c -6.27495 0 -8.87412 -6.27495 -8.87412 -8.87412 L -43.8741 -35 c 0 -6.27495 6.27495 -8.87412 8.87412 -8.87412 L 35 -43.8741 c 6.27495 0 8.87412 6.27495 8.87412 8.87412 z" />
    <path
       transform="rotate (65)"
       id="slice15-5"
       d="M -49.9917 -35 L -49.9917 35 c 0 10.6007 10.6007 14.9917 14.9917 14.9917 L 35 49.9917 c 10.6007 0 14.9917 -10.6007 14.9917 -14.9917 L 49.9917 -35 c 0 -10.6007 -10.6007 -14.9917 -14.9917 -14.9917 L -35 -49.9917 c -10.6007 0 -14.9917 10.6007 -14.9917 14.9917 z M 43.9861 -35 L 43.9861 35 c 0 6.35413 -6.35413 8.9861 -8.9861 8.9861 L -35 43.9861 c -6.35413 0 -8.9861 -6.35413 -8.9861 -8.9861 L -43.9861 -35 c 0 -6.35413 6.35413 -8.9861 8.9861 -8.9861 L 35 -43.9861 c 6.35413 0 8.9861 6.35413 8.9861 8.9861 z" />
    <path
       transform="rotate (65)"
       id="slice16-9"
       d=" M 50 -35 c 0 -10.6066 -10.6066 -15 -15 -15 L 19.4441 -50 L 19.4441 -44 L 35 -44 c 6.36396 0 9 6.36396 9 9 L 44 -19.4441 L 50 -19.4441 L 50 -35 z M 35 50 c 10.6066 0 15 -10.6066 15 -15 L 50 19.4441 L 44 19.4441 L 44 35 c 0 6.36396 -6.36396 9 -9 9 L 19.4441 44 L 19.4441 50 L 35 50 z M -50 35 c 0 10.6066 10.6066 15 15 15 L -19.4441 50 L -19.4441 44 L -35 44 c -6.36396 0 -9 -6.36396 -9 -9 L -44 19.4441 L -50 19.4441 L -50 35 z M -35 -50 c -10.6066 0 -15 10.6066 -15 15 L -50 -19.4441 L -44 -19.4441 L -44 -35 c 0 -6.36396 6.36396 -9 9 -9 L -19.4441 -44 L -19.4441 -50 L -35 -50 z" />
    <path
       transform="rotate (65)"
       id="slice17-7"
       d=" M 50 -35 c 0 -10.6066 -10.6066 -15 -15 -15 L 22.5993 -50 L 22.5993 -44 L 35 -44 c 6.36396 0 9 6.36396 9 9 L 44 -22.5993 L 50 -22.5993 L 50 -35 z M 35 50 c 10.6066 0 15 -10.6066 15 -15 L 50 22.5993 L 44 22.5993 L 44 35 c 0 6.36396 -6.36396 9 -9 9 L 22.5993 44 L 22.5993 50 L 35 50 z M -50 35 c 0 10.6066 10.6066 15 15 15 L -22.5993 50 L -22.5993 44 L -35 44 c -6.36396 0 -9 -6.36396 -9 -9 L -44 22.5993 L -50 22.5993 L -50 35 z M -35 -50 c -10.6066 0 -15 10.6066 -15 15 L -50 -22.5993 L -44 -22.5993 L -44 -35 c 0 -6.36396 6.36396 -9 9 -9 L -22.5993 -44 L -22.5993 -50 L -35 -50 z" />
    <path
       transform="rotate (65)"
       id="slice18-7"
       d=" M 50 -35 c 0 -10.6066 -10.6066 -15 -15 -15 L 24.6825 -50 L 24.6825 -44 L 35 -44 c 6.36396 0 9 6.36396 9 9 L 44 -24.6825 L 50 -24.6825 L 50 -35 z M 35 50 c 10.6066 0 15 -10.6066 15 -15 L 50 24.6825 L 44 24.6825 L 44 35 c 0 6.36396 -6.36396 9 -9 9 L 24.6825 44 L 24.6825 50 L 35 50 z M -50 35 c 0 10.6066 10.6066 15 15 15 L -24.6825 50 L -24.6825 44 L -35 44 c -6.36396 0 -9 -6.36396 -9 -9 L -44 24.6825 L -50 24.6825 L -50 35 z M -35 -50 c -10.6066 0 -15 10.6066 -15 15 L -50 -24.6825 L -44 -24.6825 L -44 -35 c 0 -6.36396 6.36396 -9 9 -9 L -24.6825 -44 L -24.6825 -50 L -35 -50 z" />
    <path
       transform="rotate (65)"
       id="slice19"
       d=" M 50 -35 c 0 -10.6066 -10.6066 -15 -15 -15 L 26.3027 -50 L 26.3027 -44 L 35 -44 c 6.36396 0 9 6.36396 9 9 L 44 -26.3027 L 50 -26.3027 L 50 -35 z M 35 50 c 10.6066 0 15 -10.6066 15 -15 L 50 26.3027 L 44 26.3027 L 44 35 c 0 6.36396 -6.36396 9 -9 9 L 26.3027 44 L 26.3027 50 L 35 50 z M -50 35 c 0 10.6066 10.6066 15 15 15 L -26.3027 50 L -26.3027 44 L -35 44 c -6.36396 0 -9 -6.36396 -9 -9 L -44 26.3027 L -50 26.3027 L -50 35 z M -35 -50 c -10.6066 0 -15 10.6066 -15 15 L -50 -26.3027 L -44 -26.3027 L -44 -35 c 0 -6.36396 6.36396 -9 9 -9 L -26.3027 -44 L -26.3027 -50 L -35 -50 z" />
    <path
       transform="rotate (65)"
       id="slice20"
       d=" M 50 -35 c 0 -10.6066 -10.6066 -15 -15 -15 L 27.6392 -50 L 27.6392 -44 L 35 -44 c 6.36396 0 9 6.36396 9 9 L 44 -27.6392 L 50 -27.6392 L 50 -35 z M 35 50 c 10.6066 0 15 -10.6066 15 -15 L 50 27.6392 L 44 27.6392 L 44 35 c 0 6.36396 -6.36396 9 -9 9 L 27.6392 44 L 27.6392 50 L 35 50 z M -50 35 c 0 10.6066 10.6066 15 15 15 L -27.6392 50 L -27.6392 44 L -35 44 c -6.36396 0 -9 -6.36396 -9 -9 L -44 27.6392 L -50 27.6392 L -50 35 z M -35 -50 c -10.6066 0 -15 10.6066 -15 15 L -50 -27.6392 L -44 -27.6392 L -44 -35 c 0 -6.36396 6.36396 -9 9 -9 L -27.6392 -44 L -27.6392 -50 L -35 -50 z" />
    <path
       transform="rotate (65)"
       id="slice21"
       d=" M 50 -35 c 0 -10.6066 -10.6066 -15 -15 -15 L 28.775 -50 L 28.775 -44 L 35 -44 c 6.36396 0 9 6.36396 9 9 L 44 -28.775 L 50 -28.775 L 50 -35 z M 35 50 c 10.6066 0 15 -10.6066 15 -15 L 50 28.775 L 44 28.775 L 44 35 c 0 6.36396 -6.36396 9 -9 9 L 28.775 44 L 28.775 50 L 35 50 z M -50 35 c 0 10.6066 10.6066 15 15 15 L -28.775 50 L -28.775 44 L -35 44 c -6.36396 0 -9 -6.36396 -9 -9 L -44 28.775 L -50 28.775 L -50 35 z M -35 -50 c -10.6066 0 -15 10.6066 -15 15 L -50 -28.775 L -44 -28.775 L -44 -35 c 0 -6.36396 6.36396 -9 9 -9 L -28.775 -44 L -28.775 -50 L -35 -50 z" />
    <path
       transform="rotate (65)"
       id="slice22"
       d=" M 50 -35 c 0 -10.6066 -10.6066 -15 -15 -15 L 29.7564 -50 L 29.7564 -44 L 35 -44 c 6.36396 0 9 6.36396 9 9 L 44 -29.7564 L 50 -29.7564 L 50 -35 z M 35 50 c 10.6066 0 15 -10.6066 15 -15 L 50 29.7564 L 44 29.7564 L 44 35 c 0 6.36396 -6.36396 9 -9 9 L 29.7564 44 L 29.7564 50 L 35 50 z M -50 35 c 0 10.6066 10.6066 15 15 15 L -29.7564 50 L -29.7564 44 L -35 44 c -6.36396 0 -9 -6.36396 -9 -9 L -44 29.7564 L -50 29.7564 L -50 35 z M -35 -50 c -10.6066 0 -15 10.6066 -15 15 L -50 -29.7564 L -44 -29.7564 L -44 -35 c 0 -6.36396 6.36396 -9 9 -9 L -29.7564 -44 L -29.7564 -50 L -35 -50 z" />
    <path
       transform="rotate (65)"
       id="slice23"
       d=" M 50 -35 c 0 -10.6066 -10.6066 -15 -15 -15 L 30.6125 -50 L 30.6125 -44 L 35 -44 c 6.36396 0 9 6.36396 9 9 L 44 -30.6125 L 50 -30.6125 L 50 -35 z M 35 50 c 10.6066 0 15 -10.6066 15 -15 L 50 30.6125 L 44 30.6125 L 44 35 c 0 6.36396 -6.36396 9 -9 9 L 30.6125 44 L 30.6125 50 L 35 50 z M -50 35 c 0 10.6066 10.6066 15 15 15 L -30.6125 50 L -30.6125 44 L -35 44 c -6.36396 0 -9 -6.36396 -9 -9 L -44 30.6125 L -50 30.6125 L -50 35 z M -35 -50 c -10.6066 0 -15 10.6066 -15 15 L -50 -30.6125 L -44 -30.6125 L -44 -35 c 0 -6.36396 6.36396 -9 9 -9 L -30.6125 -44 L -30.6125 -50 L -35 -50 z" />
    <path
       transform="rotate (65)"
       id="slice24"
       d=" M 50 -35 c 0 -10.6066 -10.6066 -15 -15 -15 L 31.3631 -50 L 31.3631 -44 L 35 -44 c 6.36396 0 9 6.36396 9 9 L 44 -31.3631 L 50 -31.3631 L 50 -35 z M 35 50 c 10.6066 0 15 -10.6066 15 -15 L 50 31.3631 L 44 31.3631 L 44 35 c 0 6.36396 -6.36396 9 -9 9 L 31.3631 44 L 31.3631 50 L 35 50 z M -50 35 c 0 10.6066 10.6066 15 15 15 L -31.3631 50 L -31.3631 44 L -35 44 c -6.36396 0 -9 -6.36396 -9 -9 L -44 31.3631 L -50 31.3631 L -50 35 z M -35 -50 c -10.6066 0 -15 10.6066 -15 15 L -50 -31.3631 L -44 -31.3631 L -44 -35 c 0 -6.36396 6.36396 -9 9 -9 L -31.3631 -44 L -31.3631 -50 L -35 -50 z" />
    <path
       transform="rotate (65)"
       id="slice25"
       d=" M 50 -35 c 0 -10.6066 -10.6066 -15 -15 -15 L 32.022 -50 L 32.022 -44 L 35 -44 c 6.36396 0 9 6.36396 9 9 L 44 -32.022 L 50 -32.022 L 50 -35 z M 35 50 c 10.6066 0 15 -10.6066 15 -15 L 50 32.022 L 44 32.022 L 44 35 c 0 6.36396 -6.36396 9 -9 9 L 32.022 44 L 32.022 50 L 35 50 z M -50 35 c 0 10.6066 10.6066 15 15 15 L -32.022 50 L -32.022 44 L -35 44 c -6.36396 0 -9 -6.36396 -9 -9 L -44 32.022 L -50 32.022 L -50 35 z M -35 -50 c -10.6066 0 -15 10.6066 -15 15 L -50 -32.022 L -44 -32.022 L -44 -35 c 0 -6.36396 6.36396 -9 9 -9 L -32.022 -44 L -32.022 -50 L -35 -50 z" />
    <path
       transform="rotate (65)"
       id="slice26"
       d=" M 50 -35 c 0 -10.6066 -10.6066 -15 -15 -15 L 32.5997 -50 L 32.5997 -44 L 35 -44 c 6.36396 0 9 6.36396 9 9 L 44 -32.5997 L 50 -32.5997 L 50 -35 z M 35 50 c 10.6066 0 15 -10.6066 15 -15 L 50 32.5997 L 44 32.5997 L 44 35 c 0 6.36396 -6.36396 9 -9 9 L 32.5997 44 L 32.5997 50 L 35 50 z M -50 35 c 0 10.6066 10.6066 15 15 15 L -32.5997 50 L -32.5997 44 L -35 44 c -6.36396 0 -9 -6.36396 -9 -9 L -44 32.5997 L -50 32.5997 L -50 35 z M -35 -50 c -10.6066 0 -15 10.6066 -15 15 L -50 -32.5997 L -44 -32.5997 L -44 -35 c 0 -6.36396 6.36396 -9 9 -9 L -32.5997 -44 L -32.5997 -50 L -35 -50 z" />
    <path
       transform="rotate (65)"
       id="slice27"
       d=" M 50 -35 c 0 -10.6066 -10.6066 -15 -15 -15 L 33.1039 -50 L 33.1039 -44 L 35 -44 c 6.36396 0 9 6.36396 9 9 L 44 -33.1039 L 50 -33.1039 L 50 -35 z M 35 50 c 10.6066 0 15 -10.6066 15 -15 L 50 33.1039 L 44 33.1039 L 44 35 c 0 6.36396 -6.36396 9 -9 9 L 33.1039 44 L 33.1039 50 L 35 50 z M -50 35 c 0 10.6066 10.6066 15 15 15 L -33.1039 50 L -33.1039 44 L -35 44 c -6.36396 0 -9 -6.36396 -9 -9 L -44 33.1039 L -50 33.1039 L -50 35 z M -35 -50 c -10.6066 0 -15 10.6066 -15 15 L -50 -33.1039 L -44 -33.1039 L -44 -35 c 0 -6.36396 6.36396 -9 9 -9 L -33.1039 -44 L -33.1039 -50 L -35 -50 z" />
    <path
       transform="rotate (65)"
       id="slice28"
       d=" M 50 -35 c 0 -10.6066 -10.6066 -15 -15 -15 L 33.5405 -50 L 33.5405 -44 L 35 -44 c 6.36396 0 9 6.36396 9 9 L 44 -33.5405 L 50 -33.5405 L 50 -35 z M 35 50 c 10.6066 0 15 -10.6066 15 -15 L 50 33.5405 L 44 33.5405 L 44 35 c 0 6.36396 -6.36396 9 -9 9 L 33.5405 44 L 33.5405 50 L 35 50 z M -50 35 c 0 10.6066 10.6066 15 15 15 L -33.5405 50 L -33.5405 44 L -35 44 c -6.36396 0 -9 -6.36396 -9 -9 L -44 33.5405 L -50 33.5405 L -50 35 z M -35 -50 c -10.6066 0 -15 10.6066 -15 15 L -50 -33.5405 L -44 -33.5405 L -44 -35 c 0 -6.36396 6.36396 -9 9 -9 L -33.5405 -44 L -33.5405 -50 L -35 -50 z" />
    <path
       transform="rotate (65)"
       id="slice29"
       d=" M 50 -35 c 0 -10.6066 -10.6066 -15 -15 -15 L 33.9143 -50 L 33.9143 -44 L 35 -44 c 6.36396 0 9 6.36396 9 9 L 44 -33.9143 L 50 -33.9143 L 50 -35 z M 35 50 c 10.6066 0 15 -10.6066 15 -15 L 50 33.9143 L 44 33.9143 L 44 35 c 0 6.36396 -6.36396 9 -9 9 L 33.9143 44 L 33.9143 50 L 35 50 z M -50 35 c 0 10.6066 10.6066 15 15 15 L -33.9143 50 L -33.9143 44 L -35 44 c -6.36396 0 -9 -6.36396 -9 -9 L -44 33.9143 L -50 33.9143 L -50 35 z M -35 -50 c -10.6066 0 -15 10.6066 -15 15 L -50 -33.9143 L -44 -33.9143 L -44 -35 c 0 -6.36396 6.36396 -9 9 -9 L -33.9143 -44 L -33.9143 -50 L -35 -50 z" />
    <path
       transform="rotate (65)"
       id="slice30"
       d=" M 50 -35 c 0 -10.6066 -10.6066 -15 -15 -15 L 34.2289 -50 L 34.2289 -44 L 35 -44 c 6.36396 0 9 6.36396 9 9 L 44 -34.2289 L 50 -34.2289 L 50 -35 z M 35 50 c 10.6066 0 15 -10.6066 15 -15 L 50 34.2289 L 44 34.2289 L 44 35 c 0 6.36396 -6.36396 9 -9 9 L 34.2289 44 L 34.2289 50 L 35 50 z M -50 35 c 0 10.6066 10.6066 15 15 15 L -34.2289 50 L -34.2289 44 L -35 44 c -6.36396 0 -9 -6.36396 -9 -9 L -44 34.2289 L -50 34.2289 L -50 35 z M -35 -50 c -10.6066 0 -15 10.6066 -15 15 L -50 -34.2289 L -44 -34.2289 L -44 -35 c 0 -6.36396 6.36396 -9 9 -9 L -34.2289 -44 L -34.2289 -50 L -35 -50 z" />
    <path
       transform="rotate (65)"
       id="slice31"
       d=" M 50 -35 c 0 -10.6066 -10.6066 -15 -15 -15 L 34.4872 -50 L 34.4872 -44 L 35 -44 c 6.36396 0 9 6.36396 9 9 L 44 -34.4872 L 50 -34.4872 L 50 -35 z M 35 50 c 10.6066 0 15 -10.6066 15 -15 L 50 34.4872 L 44 34.4872 L 44 35 c 0 6.36396 -6.36396 9 -9 9 L 34.4872 44 L 34.4872 50 L 35 50 z M -50 35 c 0 10.6066 10.6066 15 15 15 L -34.4872 50 L -34.4872 44 L -35 44 c -6.36396 0 -9 -6.36396 -9 -9 L -44 34.4872 L -50 34.4872 L -50 35 z M -35 -50 c -10.6066 0 -15 10.6066 -15 15 L -50 -34.4872 L -44 -34.4872 L -44 -35 c 0 -6.36396 6.36396 -9 9 -9 L -34.4872 -44 L -34.4872 -50 L -35 -50 z" />
    <path
       transform="rotate (65)"
       id="slice32"
       d=" M 50 -35 c 0 -10.6066 -10.6066 -15 -15 -15 L 34.6914 -50 L 34.6914 -44 L 35 -44 c 6.36396 0 9 6.36396 9 9 L 44 -34.6914 L 50 -34.6914 L 50 -35 z M 35 50 c 10.6066 0 15 -10.6066 15 -15 L 50 34.6914 L 44 34.6914 L 44 35 c 0 6.36396 -6.36396 9 -9 9 L 34.6914 44 L 34.6914 50 L 35 50 z M -50 35 c 0 10.6066 10.6066 15 15 15 L -34.6914 50 L -34.6914 44 L -35 44 c -6.36396 0 -9 -6.36396 -9 -9 L -44 34.6914 L -50 34.6914 L -50 35 z M -35 -50 c -10.6066 0 -15 10.6066 -15 15 L -50 -34.6914 L -44 -34.6914 L -44 -35 c 0 -6.36396 6.36396 -9 9 -9 L -34.6914 -44 L -34.6914 -50 L -35 -50 z" />
    <path
       transform="rotate (65)"
       id="slice33"
       d=" M 50 -35 c 0 -10.6066 -10.6066 -15 -15 -15 L 34.8431 -50 L 34.8431 -44 L 35 -44 c 6.36396 0 9 6.36396 9 9 L 44 -34.8431 L 50 -34.8431 L 50 -35 z M 35 50 c 10.6066 0 15 -10.6066 15 -15 L 50 34.8431 L 44 34.8431 L 44 35 c 0 6.36396 -6.36396 9 -9 9 L 34.8431 44 L 34.8431 50 L 35 50 z M -50 35 c 0 10.6066 10.6066 15 15 15 L -34.8431 50 L -34.8431 44 L -35 44 c -6.36396 0 -9 -6.36396 -9 -9 L -44 34.8431 L -50 34.8431 L -50 35 z M -35 -50 c -10.6066 0 -15 10.6066 -15 15 L -50 -34.8431 L -44 -34.8431 L -44 -35 c 0 -6.36396 6.36396 -9 9 -9 L -34.8431 -44 L -34.8431 -50 L -35 -50 z" />
    <path
       transform="rotate (65)"
       id="slice34"
       d=" M 50 -35 c 0 -10.6066 -10.6066 -15 -15 -15 L 34.9437 -50 L 34.9437 -44 L 35 -44 c 6.36396 0 9 6.36396 9 9 L 44 -34.9437 L 50 -34.9437 L 50 -35 z M 35 50 c 10.6066 0 15 -10.6066 15 -15 L 50 34.9437 L 44 34.9437 L 44 35 c 0 6.36396 -6.36396 9 -9 9 L 34.9437 44 L 34.9437 50 L 35 50 z M -50 35 c 0 10.6066 10.6066 15 15 15 L -34.9437 50 L -34.9437 44 L -35 44 c -6.36396 0 -9 -6.36396 -9 -9 L -44 34.9437 L -50 34.9437 L -50 35 z M -35 -50 c -10.6066 0 -15 10.6066 -15 15 L -50 -34.9437 L -44 -34.9437 L -44 -35 c 0 -6.36396 6.36396 -9 9 -9 L -34.9437 -44 L -34.9437 -50 L -35 -50 z" />
    <path
       transform="rotate (65)"
       id="slice35"
       d=" M 50 -35 c 0 -10.6066 -10.6066 -15 -15 -15 L 34.9937 -50 L 34.9937 -44 L 35 -44 c 6.36396 0 9 6.36396 9 9 L 44 -34.9937 L 50 -34.9937 L 50 -35 z M 35 50 c 10.6066 0 15 -10.6066 15 -15 L 50 34.9937 L 44 34.9937 L 44 35 c 0 6.36396 -6.36396 9 -9 9 L 34.9937 44 L 34.9937 50 L 35 50 z M -50 35 c 0 10.6066 10.6066 15 15 15 L -34.9937 50 L -34.9937 44 L -35 44 c -6.36396 0 -9 -6.36396 -9 -9 L -44 34.9937 L -50 34.9937 L -50 35 z M -35 -50 c -10.6066 0 -15 10.6066 -15 15 L -50 -34.9937 L -44 -34.9937 L -44 -35 c 0 -6.36396 6.36396 -9 9 -9 L -34.9937 -44 L -34.9937 -50 L -35 -50 z" />
    <path
       transform="rotate (65)"
       id="slice36"
       d=" M 50 -35 c 0 -10.6066 -10.6066 -15 -15 -15 L 35 -44 c 6.36396 0 9 6.36396 9 9 L 50 -35 z M 35 50 c 10.6066 0 15 -10.6066 15 -15 L 44 35 c 0 6.36396 -6.36396 9 -9 9 L 35 50 z M -50 35 c 0 10.6066 10.6066 15 15 15 L -35 44 c -6.36396 0 -9 -6.36396 -9 -9 L -50 35 z M -35 -50 c -10.6066 0 -15 10.6066 -15 15 L -44 -35 c 0 -6.36396 6.36396 -9 9 -9 L -35 -50 z" />
    <style
       id="style15318"
       type="text/css">
      @keyframes rotate360 {
        from { transform: rotate(0deg); }
        to   { transform: rotate(360deg); }
      }
      @-moz-keyframes rotate360 {
        from { -moz-transform: rotate(0deg); }
        to   { -moz-transform: rotate(360deg); }
      }
      @-webkit-keyframes rotate360 {
        from { -webkit-transform: rotate(0deg); }
        to   { -webkit-transform: rotate(360deg); }
      }

      .rotate_vert {
         animation: rotate360 10s linear infinite;
        -moz-animation: rotate360 10s linear infinite;
        -webkit-animation: rotate360 10s linear infinite;
      }

      .rotate_horiz {
         animation: rotate360 10s linear infinite;
         transform-origin: 50% 50%;
        -moz-animation: rotate360 10s linear infinite;
        -moz-transform-origin: 50% 50%;
        -webkit-animation: rotate360 10s linear infinite;
        -webkit-transform-origin: 50% 50%;
      }

      .object3D { stroke: #555555; fill: #eeeeee ; stroke-width: 1 }
    </style>
    <path
       transform="rotate (25)"
       id="slice1-7"
       d="M -40.3852 -35 L -40.3852 35 c 0 3.80789 3.80789 5.38516 5.38516 5.38516 L 35 40.3852 c 3.80789 0 5.38516 -3.80789 5.38516 -5.38516 L 40.3852 -35 c 0 -3.80789 -3.80789 -5.38516 -5.38516 -5.38516 L -35 -40.3852 c -3.80789 0 -5.38516 3.80789 -5.38516 5.38516 z" />
    <path
       transform="rotate (25)"
       id="slice2-3"
       d="M -44 -35 L -44 35 c 0 6.36396 6.36396 9 9 9 L 35 44 c 6.36396 0 9 -6.36396 9 -9 L 44 -35 c 0 -6.36396 -6.36396 -9 -9 -9 L -35 -44 c -6.36396 0 -9 6.36396 -9 9 z" />
    <path
       transform="rotate (25)"
       id="slice3-6"
       d="M -46.1803 -35 L -46.1803 35 c 0 7.90569 7.90569 11.1803 11.1803 11.1803 L 35 46.1803 c 7.90569 0 11.1803 -7.90569 11.1803 -11.1803 L 46.1803 -35 c 0 -7.90569 -7.90569 -11.1803 -11.1803 -11.1803 L -35 -46.1803 c -7.90569 0 -11.1803 7.90569 -11.1803 11.1803 z" />
    <path
       transform="rotate (25)"
       id="slice4-56"
       d="M -47.6886 -35 L -47.6886 35 c 0 8.97218 8.97218 12.6886 12.6886 12.6886 L 35 47.6886 c 8.97218 0 12.6886 -8.97218 12.6886 -12.6886 L 47.6886 -35 c 0 -8.97218 -8.97218 -12.6886 -12.6886 -12.6886 L -35 -47.6886 c -8.97218 0 -12.6886 8.97218 -12.6886 12.6886 z" />
    <path
       transform="rotate (25)"
       id="slice5-3"
       d="M -48.7477 -35 L -48.7477 35 c 0 9.72111 9.72111 13.7477 13.7477 13.7477 L 35 48.7477 c 9.72111 0 13.7477 -9.72111 13.7477 -13.7477 L 48.7477 -35 c 0 -9.72111 -9.72111 -13.7477 -13.7477 -13.7477 L -35 -48.7477 c -9.72111 0 -13.7477 9.72111 -13.7477 13.7477 z" />
    <path
       transform="rotate (25)"
       id="slice6-9"
       d="M -49.4568 -35 L -49.4568 35 c 0 10.2225 10.2225 14.4568 14.4568 14.4568 L 35 49.4568 c 10.2225 0 14.4568 -10.2225 14.4568 -14.4568 L 49.4568 -35 c 0 -10.2225 -10.2225 -14.4568 -14.4568 -14.4568 L -35 -49.4568 c -10.2225 0 -14.4568 10.2225 -14.4568 14.4568 z" />
    <path
       transform="rotate (25)"
       id="slice7-4"
       d="M -49.8661 -35 L -49.8661 35 c 0 10.5119 10.5119 14.8661 14.8661 14.8661 L 35 49.8661 c 10.5119 0 14.8661 -10.5119 14.8661 -14.8661 L 49.8661 -35 c 0 -10.5119 -10.5119 -14.8661 -14.8661 -14.8661 L -35 -49.8661 c -10.5119 0 -14.8661 10.5119 -14.8661 14.8661 z" />
    <path
       transform="rotate (25)"
       id="slice8-8"
       d="M -50 -35 L -50 35 c 0 10.6066 10.6066 15 15 15 L 35 50 c 10.6066 0 15 -10.6066 15 -15 L 50 -35 c 0 -10.6066 -10.6066 -15 -15 -15 L -35 -50 c -10.6066 0 -15 10.6066 -15 15 z" />
  </defs>
  <sodipodi:namedview
     id="base"
     pagecolor="#ffffff"
     bordercolor="#666666"
     borderopacity="1.0"
     inkscape:pageopacity="0.0"
     inkscape:pageshadow="2"
     inkscape:zoom="1.4"
     inkscape:cx="341.93216"
     inkscape:cy="608.18283"
     inkscape:document-units="mm"
     inkscape:current-layer="layer1"
     showgrid="false"
     inkscape:window-width="3840"
     inkscape:window-height="2096"
     inkscape:window-x="0"
     inkscape:window-y="27"
     inkscape:window-maximized="1" />
  <metadata
     id="metadata5">
    <rdf:RDF>
      <cc:Work
         rdf:about="">
        <dc:format>image/svg+xml</dc:format>
        <dc:type
           rdf:resource="http://purl.org/dc/dcmitype/StillImage" />
        <dc:title />
      </cc:Work>
    </rdf:RDF>
  </metadata>
  <g
     inkscape:label="Layer 1"
     inkscape:groupmode="layer"
     id="layer1">
    <g
       id="g9726"
       transform="translate(0,-30.162503)">
      <rect
         style="opacity:1;fill:#ffe52b;fill-opacity:1;fill-rule:nonzero;stroke:none;stroke-width:0.5;stroke-miterlimit:4;stroke-dasharray:none;stroke-opacity:1"
         id="rect4881"
         width="28.584448"
         height="28.584448"
         x="7.4581461"
         y="37.071751" />
      <path
         id="path4883"
         style="font-style:normal;font-variant:normal;font-weight:normal;font-stretch:normal;font-size:16.78891182px;line-height:1.25;font-family:Fabricate;-inkscape-font-specification:'Fabricate, Normal';font-variant-ligatures:normal;font-variant-caps:normal;font-variant-numeric:normal;font-feature-settings:normal;text-align:start;letter-spacing:0px;word-spacing:0px;writing-mode:lr-tb;text-anchor:start;fill:#000000;fill-opacity:1;stroke:none;stroke-width:0.26458332"
         d="m 27.37466,51.36139 q 0,0.47009 -0.33578,0.805867 -0.31899,0.318989 -0.78908,0.318989 h -4.13007 l -4.18044,3.139528 q -0.28541,0.218256 -0.62119,0.235045 -0.33578,0.03358 -0.63798,-0.151101 -0.25183,-0.1511 -0.40293,-0.402934 -0.1511,-0.251833 -0.1511,-0.570823 v -6.749142 q 0,-0.47009 0.31899,-0.789079 0.33577,-0.335778 0.80586,-0.335778 0.47009,0 0.78908,0.335778 0.33578,0.318989 0.33578,0.789079 v 4.499428 l 2.70301,-2.031458 q 0.3022,-0.218256 0.67156,-0.218256 h 3.37457 v -2.249714 q 0,-0.47009 0.31899,-0.789079 0.33578,-0.335778 0.80587,-0.335778 0.47009,0 0.78908,0.335778 0.33578,0.318989 0.33578,0.789079 z"
         inkscape:connector-curvature="0" />
    </g>
    <g
       id="g9734"
       transform="translate(0,-30.162503)">
      <rect
         style="opacity:1;fill:#000000;fill-opacity:1;fill-rule:nonzero;stroke:none;stroke-width:0.5;stroke-miterlimit:4;stroke-dasharray:none;stroke-opacity:1"
         id="rect8598"
         width="28.584448"
         height="28.584448"
         x="41.334251"
         y="37.071751" />
      <path
         id="path8600"
         style="font-style:normal;font-variant:normal;font-weight:normal;font-stretch:normal;font-size:16.78891182px;line-height:1.25;font-family:Fabricate;-inkscape-font-specification:'Fabricate, Normal';font-variant-ligatures:normal;font-variant-caps:normal;font-variant-numeric:normal;font-feature-settings:normal;text-align:start;letter-spacing:0px;word-spacing:0px;writing-mode:lr-tb;text-anchor:start;fill:#ffe52b;fill-opacity:1;stroke:none;stroke-width:0.26458332"
         d="m 61.250765,51.36139 q 0,0.47009 -0.33578,0.805867 -0.31899,0.318989 -0.78908,0.318989 h -4.13007 l -4.18044,3.139528 q -0.28541,0.218256 -0.62119,0.235045 -0.33578,0.03358 -0.63798,-0.151101 -0.25183,-0.1511 -0.40293,-0.402934 -0.1511,-0.251833 -0.1511,-0.570823 v -6.749142 q 0,-0.47009 0.31899,-0.789079 0.33577,-0.335778 0.80586,-0.335778 0.47009,0 0.78908,0.335778 0.33578,0.318989 0.33578,0.789079 v 4.499428 l 2.70301,-2.031458 q 0.3022,-0.218256 0.67156,-0.218256 h 3.37457 v -2.249714 q 0,-0.47009 0.31899,-0.789079 0.33578,-0.335778 0.80587,-0.335778 0.47009,0 0.78908,0.335778 0.33578,0.318989 0.33578,0.789079 z"
         inkscape:connector-curvature="0" />
    </g>
    <g
       id="g5123"
       transform="translate(224.23913,-181.94388)"
       inkscape:export-xdpi="762"
       inkscape:export-ydpi="762">
      <rect
         style="opacity:1;fill:#000000;fill-opacity:1;fill-rule:nonzero;stroke:none;stroke-width:0.49999994;stroke-miterlimit:4;stroke-dasharray:none;stroke-opacity:1"
         id="rect8598-1"
         width="100"
         height="40"
         x="-217.14983"
         y="269.15366" />
      <g
         id="g5002"
         inkscape:export-filename="/home/elp/wave.png"
         inkscape:export-xdpi="195.08524"
         inkscape:export-ydpi="195.08524"
         transform="matrix(0.94896975,0,0,0.94896975,-226.64507,245.34241)"
         style="fill:#ffe52b;fill-opacity:1;stroke:none;stroke-width:1.15915179;stroke-miterlimit:4;stroke-dasharray:none;stroke-opacity:1">
        <path
           d="m 44.823532,48.430372 q 0,0.633406 -0.452432,1.085839 -0.429811,0.429811 -1.063217,0.429811 h -5.564924 l -5.632788,4.230247 q -0.384568,0.294081 -0.837,0.316703 -0.452433,0.04524 -0.859623,-0.203595 -0.339324,-0.203595 -0.542919,-0.54292 -0.203595,-0.339324 -0.203595,-0.769135 v -9.093899 q 0,-0.633406 0.429811,-1.063217 0.452433,-0.452433 1.085839,-0.452433 0.633406,0 1.063217,0.452433 0.452433,0.429811 0.452433,1.063217 v 6.062599 l 3.642084,-2.737218 q 0.407189,-0.294082 0.904865,-0.294082 h 4.54695 v -3.031299 q 0,-0.633406 0.429811,-1.063217 0.452433,-0.452433 1.085839,-0.452433 0.633406,0 1.063217,0.452433 0.452432,0.429811 0.452432,1.063217 z"
           style="font-style:normal;font-variant:normal;font-weight:normal;font-stretch:normal;font-size:22.62163925px;line-height:1.25;font-family:Fabricate;-inkscape-font-specification:'Fabricate, Normal';font-variant-ligatures:normal;font-variant-caps:normal;font-variant-numeric:normal;font-feature-settings:normal;text-align:start;letter-spacing:0px;word-spacing:0px;writing-mode:lr-tb;text-anchor:start;fill:#ffe52b;fill-opacity:1;stroke:none;stroke-width:1.15915179;stroke-miterlimit:4;stroke-dasharray:none;stroke-opacity:1"
           id="path4994"
           inkscape:connector-curvature="0" />
        <path
           d="m 61.789719,48.430372 q 0,0.633406 -0.452433,1.085839 -0.429811,0.429811 -1.063217,0.429811 -0.633406,0 -1.085839,-0.429811 -0.429811,-0.452433 -0.429811,-1.085839 v -6.062599 l -9.704683,7.261546 q -0.520298,0.384568 -1.153704,0.316703 -0.633405,-0.09049 -1.017973,-0.633406 -0.384568,-0.520298 -0.27146,-1.10846 0.09049,-0.610784 0.588163,-0.995352 l 12.14782,-9.071278 q 0.361946,-0.271459 0.791757,-0.294081 0.429811,-0.04524 0.791758,0.13573 0.384568,0.158351 0.610784,0.520298 0.248838,0.361946 0.248838,0.837 z"
           style="font-style:normal;font-variant:normal;font-weight:normal;font-stretch:normal;font-size:22.62163925px;line-height:1.25;font-family:Fabricate;-inkscape-font-specification:'Fabricate, Normal';font-variant-ligatures:normal;font-variant-caps:normal;font-variant-numeric:normal;font-feature-settings:normal;text-align:start;letter-spacing:0px;word-spacing:0px;writing-mode:lr-tb;text-anchor:start;fill:#ffe52b;fill-opacity:1;stroke:none;stroke-width:1.15915179;stroke-miterlimit:4;stroke-dasharray:none;stroke-opacity:1"
           id="path4996"
           inkscape:connector-curvature="0" />
        <path
           d="m 78.507067,43.001179 q 0.384568,0.520297 0.27146,1.131082 -0.09049,0.588162 -0.588162,0.97273 l -12.147821,9.071278 q -0.384568,0.271459 -0.814379,0.294081 -0.407189,0.04524 -0.791757,-0.13573 -0.361946,-0.158351 -0.610784,-0.520298 -0.226217,-0.361946 -0.226217,-0.837 v -9.093899 q 0,-0.633406 0.429811,-1.063217 0.452433,-0.452433 1.085839,-0.452433 0.633406,0 1.063217,0.452433 0.452433,0.429811 0.452433,1.063217 v 6.062599 l 9.704683,-7.261546 q 0.520298,-0.384568 1.153704,-0.294081 0.633406,0.06786 1.017973,0.610784 z"
           style="font-style:normal;font-variant:normal;font-weight:normal;font-stretch:normal;font-size:22.62163925px;line-height:1.25;font-family:Fabricate;-inkscape-font-specification:'Fabricate, Normal';font-variant-ligatures:normal;font-variant-caps:normal;font-variant-numeric:normal;font-feature-settings:normal;text-align:start;letter-spacing:0px;word-spacing:0px;writing-mode:lr-tb;text-anchor:start;fill:#ffe52b;fill-opacity:1;stroke:none;stroke-width:1.15915179;stroke-miterlimit:4;stroke-dasharray:none;stroke-opacity:1"
           id="path4998"
           inkscape:connector-curvature="0" />
        <path
           d="m 95.722092,52.977322 q 0,0.633406 -0.452433,1.063217 -0.429811,0.452433 -1.063217,0.452433 h -6.062599 q -0.633406,0 -1.085839,-0.452433 -0.429811,-0.429811 -0.429811,-1.063217 v -3.0313 h -4.546949 q -0.633406,0 -1.085839,-0.429811 -0.429811,-0.452433 -0.429811,-1.085839 v -4.546949 q 0,-0.633406 0.429811,-1.063217 0.452433,-0.452433 1.085839,-0.452433 h 12.125198 q 0.633406,0 1.063217,0.452433 0.452433,0.429811 0.452433,1.063217 0,0.633406 -0.452433,1.085838 -0.429811,0.429812 -1.063217,0.429812 H 83.596893 v 1.515649 h 4.54695 q 0.633406,0 1.063217,0.452433 0.452433,0.429811 0.452433,1.063217 v 3.0313 h 4.546949 q 0.633406,0 1.063217,0.429811 0.452433,0.452433 0.452433,1.085839 z"
           style="font-style:normal;font-variant:normal;font-weight:normal;font-stretch:normal;font-size:22.62163925px;line-height:1.25;font-family:Fabricate;-inkscape-font-specification:'Fabricate, Normal';font-variant-ligatures:normal;font-variant-caps:normal;font-variant-numeric:normal;font-feature-settings:normal;text-align:start;letter-spacing:0px;word-spacing:0px;writing-mode:lr-tb;text-anchor:start;fill:#ffe52b;fill-opacity:1;stroke:none;stroke-width:1.15915179;stroke-miterlimit:4;stroke-dasharray:none;stroke-opacity:1"
           id="path5000"
           inkscape:connector-curvature="0" />
      </g>
    </g>
    <g
       id="g5093"
       transform="translate(229.04998,-157.74547)"
       inkscape:export-xdpi="762"
       inkscape:export-ydpi="762">
      <rect
         y="199.66357"
         x="-221.96068"
         height="40"
         width="100"
         id="rect5067"
         style="opacity:1;fill:#ffe52b;fill-opacity:1;fill-rule:nonzero;stroke:none;stroke-width:0.49999994;stroke-miterlimit:4;stroke-dasharray:none;stroke-opacity:1" />
      <g
         style="fill:#000000;fill-opacity:1;stroke:none;stroke-width:1.15915179;stroke-miterlimit:4;stroke-dasharray:none;stroke-opacity:1"
         transform="matrix(0.94896975,0,0,0.94896975,-231.45592,175.85233)"
         inkscape:export-ydpi="195.08524"
         inkscape:export-xdpi="195.08524"
         inkscape:export-filename="/home/elp/wave.png"
         id="g5077">
        <path
           inkscape:connector-curvature="0"
           id="path5069"
           style="font-style:normal;font-variant:normal;font-weight:normal;font-stretch:normal;font-size:22.62163925px;line-height:1.25;font-family:Fabricate;-inkscape-font-specification:'Fabricate, Normal';font-variant-ligatures:normal;font-variant-caps:normal;font-variant-numeric:normal;font-feature-settings:normal;text-align:start;letter-spacing:0px;word-spacing:0px;writing-mode:lr-tb;text-anchor:start;fill:#000000;fill-opacity:1;stroke:none;stroke-width:1.15915179;stroke-miterlimit:4;stroke-dasharray:none;stroke-opacity:1"
           d="m 44.823532,48.430372 q 0,0.633406 -0.452432,1.085839 -0.429811,0.429811 -1.063217,0.429811 h -5.564924 l -5.632788,4.230247 q -0.384568,0.294081 -0.837,0.316703 -0.452433,0.04524 -0.859623,-0.203595 -0.339324,-0.203595 -0.542919,-0.54292 -0.203595,-0.339324 -0.203595,-0.769135 v -9.093899 q 0,-0.633406 0.429811,-1.063217 0.452433,-0.452433 1.085839,-0.452433 0.633406,0 1.063217,0.452433 0.452433,0.429811 0.452433,1.063217 v 6.062599 l 3.642084,-2.737218 q 0.407189,-0.294082 0.904865,-0.294082 h 4.54695 v -3.031299 q 0,-0.633406 0.429811,-1.063217 0.452433,-0.452433 1.085839,-0.452433 0.633406,0 1.063217,0.452433 0.452432,0.429811 0.452432,1.063217 z" />
        <path
           inkscape:connector-curvature="0"
           id="path5071"
           style="font-style:normal;font-variant:normal;font-weight:normal;font-stretch:normal;font-size:22.62163925px;line-height:1.25;font-family:Fabricate;-inkscape-font-specification:'Fabricate, Normal';font-variant-ligatures:normal;font-variant-caps:normal;font-variant-numeric:normal;font-feature-settings:normal;text-align:start;letter-spacing:0px;word-spacing:0px;writing-mode:lr-tb;text-anchor:start;fill:#000000;fill-opacity:1;stroke:none;stroke-width:1.15915179;stroke-miterlimit:4;stroke-dasharray:none;stroke-opacity:1"
           d="m 61.789719,48.430372 q 0,0.633406 -0.452433,1.085839 -0.429811,0.429811 -1.063217,0.429811 -0.633406,0 -1.085839,-0.429811 -0.429811,-0.452433 -0.429811,-1.085839 v -6.062599 l -9.704683,7.261546 q -0.520298,0.384568 -1.153704,0.316703 -0.633405,-0.09049 -1.017973,-0.633406 -0.384568,-0.520298 -0.27146,-1.10846 0.09049,-0.610784 0.588163,-0.995352 l 12.14782,-9.071278 q 0.361946,-0.271459 0.791757,-0.294081 0.429811,-0.04524 0.791758,0.13573 0.384568,0.158351 0.610784,0.520298 0.248838,0.361946 0.248838,0.837 z" />
        <path
           inkscape:connector-curvature="0"
           id="path5073"
           style="font-style:normal;font-variant:normal;font-weight:normal;font-stretch:normal;font-size:22.62163925px;line-height:1.25;font-family:Fabricate;-inkscape-font-specification:'Fabricate, Normal';font-variant-ligatures:normal;font-variant-caps:normal;font-variant-numeric:normal;font-feature-settings:normal;text-align:start;letter-spacing:0px;word-spacing:0px;writing-mode:lr-tb;text-anchor:start;fill:#000000;fill-opacity:1;stroke:none;stroke-width:1.15915179;stroke-miterlimit:4;stroke-dasharray:none;stroke-opacity:1"
           d="m 78.507067,43.001179 q 0.384568,0.520297 0.27146,1.131082 -0.09049,0.588162 -0.588162,0.97273 l -12.147821,9.071278 q -0.384568,0.271459 -0.814379,0.294081 -0.407189,0.04524 -0.791757,-0.13573 -0.361946,-0.158351 -0.610784,-0.520298 -0.226217,-0.361946 -0.226217,-0.837 v -9.093899 q 0,-0.633406 0.429811,-1.063217 0.452433,-0.452433 1.085839,-0.452433 0.633406,0 1.063217,0.452433 0.452433,0.429811 0.452433,1.063217 v 6.062599 l 9.704683,-7.261546 q 0.520298,-0.384568 1.153704,-0.294081 0.633406,0.06786 1.017973,0.610784 z" />
        <path
           inkscape:connector-curvature="0"
           id="path5075"
           style="font-style:normal;font-variant:normal;font-weight:normal;font-stretch:normal;font-size:22.62163925px;line-height:1.25;font-family:Fabricate;-inkscape-font-specification:'Fabricate, Normal';font-variant-ligatures:normal;font-variant-caps:normal;font-variant-numeric:normal;font-feature-settings:normal;text-align:start;letter-spacing:0px;word-spacing:0px;writing-mode:lr-tb;text-anchor:start;fill:#000000;fill-opacity:1;stroke:none;stroke-width:1.15915179;stroke-miterlimit:4;stroke-dasharray:none;stroke-opacity:1"
           d="m 95.722092,52.977322 q 0,0.633406 -0.452433,1.063217 -0.429811,0.452433 -1.063217,0.452433 h -6.062599 q -0.633406,0 -1.085839,-0.452433 -0.429811,-0.429811 -0.429811,-1.063217 v -3.0313 h -4.546949 q -0.633406,0 -1.085839,-0.429811 -0.429811,-0.452433 -0.429811,-1.085839 v -4.546949 q 0,-0.633406 0.429811,-1.063217 0.452433,-0.452433 1.085839,-0.452433 h 12.125198 q 0.633406,0 1.063217,0.452433 0.452433,0.429811 0.452433,1.063217 0,0.633406 -0.452433,1.085838 -0.429811,0.429812 -1.063217,0.429812 H 83.596893 v 1.515649 h 4.54695 q 0.633406,0 1.063217,0.452433 0.452433,0.429811 0.452433,1.063217 v 3.0313 h 4.546949 q 0.633406,0 1.063217,0.429811 0.452433,0.452433 0.452433,1.085839 z" />
      </g>
    </g>
    <g
       id="g9730"
       inkscape:export-xdpi="888.59003"
       inkscape:export-ydpi="888.59003"
       transform="translate(0,-30.162503)">
      <rect
         y="37.071751"
         x="75.210358"
         height="28.584448"
         width="28.584448"
         id="rect9673"
         style="opacity:1;fill:#000000;fill-opacity:1;fill-rule:nonzero;stroke:none;stroke-width:0.5;stroke-miterlimit:4;stroke-dasharray:none;stroke-opacity:1" />
      <path
         inkscape:connector-curvature="0"
         d="m 95.126874,51.36139 q 0,0.47009 -0.33578,0.805867 -0.31899,0.318989 -0.78908,0.318989 h -4.13007 l -4.18044,3.139528 q -0.28541,0.218256 -0.62119,0.235045 -0.33578,0.03358 -0.63798,-0.151101 -0.25183,-0.1511 -0.40293,-0.402934 -0.1511,-0.251833 -0.1511,-0.570823 v -6.749142 q 0,-0.47009 0.31899,-0.789079 0.33577,-0.335778 0.80586,-0.335778 0.47009,0 0.78908,0.335778 0.33578,0.318989 0.33578,0.789079 v 4.499428 l 2.70301,-2.031458 q 0.3022,-0.218256 0.67156,-0.218256 h 3.37457 v -2.249714 q 0,-0.47009 0.31899,-0.789079 0.33578,-0.335778 0.80587,-0.335778 0.47009,0 0.78908,0.335778 0.33578,0.318989 0.33578,0.789079 z"
         style="font-style:normal;font-variant:normal;font-weight:normal;font-stretch:normal;font-size:16.78891182px;line-height:1.25;font-family:Fabricate;-inkscape-font-specification:'Fabricate, Normal';font-variant-ligatures:normal;font-variant-caps:normal;font-variant-numeric:normal;font-feature-settings:normal;text-align:start;letter-spacing:0px;word-spacing:0px;writing-mode:lr-tb;text-anchor:start;fill:#ffffff;fill-opacity:1;stroke:none;stroke-width:0.26458332"
         id="path9675" />
    </g>
    <g
       id="g9707"
       inkscape:export-xdpi="762"
       inkscape:export-ydpi="762"
       transform="translate(0,-30.162503)">
      <rect
         y="162.664"
         x="7.089304"
         height="40"
         width="100"
         id="rect9681"
         style="opacity:1;fill:#000000;fill-opacity:1;fill-rule:nonzero;stroke:none;stroke-width:0.49999994;stroke-miterlimit:4;stroke-dasharray:none;stroke-opacity:1" />
      <g
         style="fill:#ffffff;fill-opacity:1;stroke:none;stroke-width:1.15915179;stroke-miterlimit:4;stroke-dasharray:none;stroke-opacity:1"
         transform="matrix(0.94896975,0,0,0.94896975,-2.40594,138.85275)"
         inkscape:export-ydpi="195.08524"
         inkscape:export-xdpi="195.08524"
         inkscape:export-filename="/home/elp/wave.png"
         id="g9691">
        <path
           inkscape:connector-curvature="0"
           id="path9683"
           style="font-style:normal;font-variant:normal;font-weight:normal;font-stretch:normal;font-size:22.62163925px;line-height:1.25;font-family:Fabricate;-inkscape-font-specification:'Fabricate, Normal';font-variant-ligatures:normal;font-variant-caps:normal;font-variant-numeric:normal;font-feature-settings:normal;text-align:start;letter-spacing:0px;word-spacing:0px;writing-mode:lr-tb;text-anchor:start;fill:#ffffff;fill-opacity:1;stroke:none;stroke-width:1.15915179;stroke-miterlimit:4;stroke-dasharray:none;stroke-opacity:1"
           d="m 44.823532,48.430372 q 0,0.633406 -0.452432,1.085839 -0.429811,0.429811 -1.063217,0.429811 h -5.564924 l -5.632788,4.230247 q -0.384568,0.294081 -0.837,0.316703 -0.452433,0.04524 -0.859623,-0.203595 -0.339324,-0.203595 -0.542919,-0.54292 -0.203595,-0.339324 -0.203595,-0.769135 v -9.093899 q 0,-0.633406 0.429811,-1.063217 0.452433,-0.452433 1.085839,-0.452433 0.633406,0 1.063217,0.452433 0.452433,0.429811 0.452433,1.063217 v 6.062599 l 3.642084,-2.737218 q 0.407189,-0.294082 0.904865,-0.294082 h 4.54695 v -3.031299 q 0,-0.633406 0.429811,-1.063217 0.452433,-0.452433 1.085839,-0.452433 0.633406,0 1.063217,0.452433 0.452432,0.429811 0.452432,1.063217 z" />
        <path
           inkscape:connector-curvature="0"
           id="path9685"
           style="font-style:normal;font-variant:normal;font-weight:normal;font-stretch:normal;font-size:22.62163925px;line-height:1.25;font-family:Fabricate;-inkscape-font-specification:'Fabricate, Normal';font-variant-ligatures:normal;font-variant-caps:normal;font-variant-numeric:normal;font-feature-settings:normal;text-align:start;letter-spacing:0px;word-spacing:0px;writing-mode:lr-tb;text-anchor:start;fill:#ffffff;fill-opacity:1;stroke:none;stroke-width:1.15915179;stroke-miterlimit:4;stroke-dasharray:none;stroke-opacity:1"
           d="m 61.789719,48.430372 q 0,0.633406 -0.452433,1.085839 -0.429811,0.429811 -1.063217,0.429811 -0.633406,0 -1.085839,-0.429811 -0.429811,-0.452433 -0.429811,-1.085839 v -6.062599 l -9.704683,7.261546 q -0.520298,0.384568 -1.153704,0.316703 -0.633405,-0.09049 -1.017973,-0.633406 -0.384568,-0.520298 -0.27146,-1.10846 0.09049,-0.610784 0.588163,-0.995352 l 12.14782,-9.071278 q 0.361946,-0.271459 0.791757,-0.294081 0.429811,-0.04524 0.791758,0.13573 0.384568,0.158351 0.610784,0.520298 0.248838,0.361946 0.248838,0.837 z" />
        <path
           inkscape:connector-curvature="0"
           id="path9687"
           style="font-style:normal;font-variant:normal;font-weight:normal;font-stretch:normal;font-size:22.62163925px;line-height:1.25;font-family:Fabricate;-inkscape-font-specification:'Fabricate, Normal';font-variant-ligatures:normal;font-variant-caps:normal;font-variant-numeric:normal;font-feature-settings:normal;text-align:start;letter-spacing:0px;word-spacing:0px;writing-mode:lr-tb;text-anchor:start;fill:#ffffff;fill-opacity:1;stroke:none;stroke-width:1.15915179;stroke-miterlimit:4;stroke-dasharray:none;stroke-opacity:1"
           d="m 78.507067,43.001179 q 0.384568,0.520297 0.27146,1.131082 -0.09049,0.588162 -0.588162,0.97273 l -12.147821,9.071278 q -0.384568,0.271459 -0.814379,0.294081 -0.407189,0.04524 -0.791757,-0.13573 -0.361946,-0.158351 -0.610784,-0.520298 -0.226217,-0.361946 -0.226217,-0.837 v -9.093899 q 0,-0.633406 0.429811,-1.063217 0.452433,-0.452433 1.085839,-0.452433 0.633406,0 1.063217,0.452433 0.452433,0.429811 0.452433,1.063217 v 6.062599 l 9.704683,-7.261546 q 0.520298,-0.384568 1.153704,-0.294081 0.633406,0.06786 1.017973,0.610784 z" />
        <path
           inkscape:connector-curvature="0"
           id="path9689"
           style="font-style:normal;font-variant:normal;font-weight:normal;font-stretch:normal;font-size:22.62163925px;line-height:1.25;font-family:Fabricate;-inkscape-font-specification:'Fabricate, Normal';font-variant-ligatures:normal;font-variant-caps:normal;font-variant-numeric:normal;font-feature-settings:normal;text-align:start;letter-spacing:0px;word-spacing:0px;writing-mode:lr-tb;text-anchor:start;fill:#ffffff;fill-opacity:1;stroke:none;stroke-width:1.15915179;stroke-miterlimit:4;stroke-dasharray:none;stroke-opacity:1"
           d="m 95.722092,52.977322 q 0,0.633406 -0.452433,1.063217 -0.429811,0.452433 -1.063217,0.452433 h -6.062599 q -0.633406,0 -1.085839,-0.452433 -0.429811,-0.429811 -0.429811,-1.063217 v -3.0313 h -4.546949 q -0.633406,0 -1.085839,-0.429811 -0.429811,-0.452433 -0.429811,-1.085839 v -4.546949 q 0,-0.633406 0.429811,-1.063217 0.452433,-0.452433 1.085839,-0.452433 h 12.125198 q 0.633406,0 1.063217,0.452433 0.452433,0.429811 0.452433,1.063217 0,0.633406 -0.452433,1.085838 -0.429811,0.429812 -1.063217,0.429812 H 83.596893 v 1.515649 h 4.54695 q 0.633406,0 1.063217,0.452433 0.452433,0.429811 0.452433,1.063217 v 3.0313 h 4.546949 q 0.633406,0 1.063217,0.429811 0.452433,0.452433 0.452433,1.085839 z" />
      </g>
    </g>
    <g
       id="g9746"
       transform="translate(-178.39007,172.87559)">
      <g
         id="g9750"
         inkscape:export-xdpi="922.42694"
         inkscape:export-ydpi="922.42694"
         transform="translate(174.81399,-240.01488)">
        <rect
           ry="2.6726952"
           style="opacity:1;fill:#ffe52b;fill-opacity:1;fill-rule:nonzero;stroke:none;stroke-width:0.49999994;stroke-miterlimit:4;stroke-dasharray:none;stroke-opacity:1"
           id="rect9736"
           width="17.434151"
           height="17.434151"
           x="10.66538"
           y="244.93242"
           rx="2.6726952" />
        <path
           id="path9738"
           style="font-style:normal;font-variant:normal;font-weight:normal;font-stretch:normal;font-size:16.78891182px;line-height:1.25;font-family:Fabricate;-inkscape-font-specification:'Fabricate, Normal';font-variant-ligatures:normal;font-variant-caps:normal;font-variant-numeric:normal;font-feature-settings:normal;text-align:start;letter-spacing:0px;word-spacing:0px;writing-mode:lr-tb;text-anchor:start;fill:#000000;fill-opacity:1;stroke:none;stroke-width:0.26458332"
           d="m 25.00674,253.64691 q 0,0.47009 -0.33578,0.80587 -0.31899,0.31899 -0.78908,0.31899 h -4.13007 l -4.18044,3.13952 q -0.28541,0.21826 -0.62119,0.23505 -0.33578,0.0336 -0.63798,-0.1511 -0.25183,-0.1511 -0.40293,-0.40294 -0.1511,-0.25183 -0.1511,-0.57082 v -6.74914 q 0,-0.47009 0.31899,-0.78908 0.33577,-0.33578 0.80586,-0.33578 0.47009,0 0.78908,0.33578 0.33578,0.31899 0.33578,0.78908 v 4.49943 l 2.70301,-2.03146 q 0.3022,-0.21826 0.67156,-0.21826 h 3.37457 v -2.24971 q 0,-0.47009 0.31899,-0.78908 0.33578,-0.33578 0.80587,-0.33578 0.47009,0 0.78908,0.33578 0.33578,0.31899 0.33578,0.78908 z"
           inkscape:connector-curvature="0" />
      </g>
    </g>
  </g>
</svg>
