<svg width="617" height="1122" viewBox="0 0 617 1122" fill="none" xmlns="http://www.w3.org/2000/svg">
<rect width="617" height="1122" rx="16" fill="#161616"/>
<rect x="22" y="62" width="576" height="136" rx="30" fill="url(#paint0_radial_3_17)" stroke="#54585A" stroke-width="4"/>
<rect x="22" y="282" width="576" height="136" rx="30" fill="url(#paint1_radial_3_17)" stroke="#54585A" stroke-width="4"/>
<rect x="22" y="502" width="576" height="136" rx="30" fill="url(#paint2_radial_3_17)" stroke="#54585A" stroke-width="4"/>
<rect x="22" y="722" width="576" height="136" rx="30" fill="url(#paint3_radial_3_17)" stroke="#54585A" stroke-width="4"/>
<rect x="22" y="942" width="576" height="136" rx="30" fill="url(#paint4_radial_3_17)" stroke="#54585A" stroke-width="4"/>
<rect x="40" y="80" width="100" height="100" rx="16" fill="white" fill-opacity="0.15"/>
<rect x="41" y="81" width="98" height="98" rx="15" stroke="white" stroke-opacity="0.28" stroke-width="2"/>
<rect x="240" y="300" width="100" height="100" rx="16" fill="white" fill-opacity="0.15"/>
<rect x="241" y="301" width="98" height="98" rx="15" stroke="white" stroke-opacity="0.28" stroke-width="2"/>
<rect x="160" y="80" width="100" height="100" rx="16" fill="white" fill-opacity="0.15"/>
<rect x="161" y="81" width="98" height="98" rx="15" stroke="white" stroke-opacity="0.28" stroke-width="2"/>
<rect x="360" y="300" width="100" height="100" rx="16" fill="white" fill-opacity="0.15"/>
<rect x="361" y="301" width="98" height="98" rx="15" stroke="white" stroke-opacity="0.28" stroke-width="2"/>
<rect x="280" y="80" width="100" height="100" rx="16" fill="white" fill-opacity="0.15"/>
<rect x="281" y="81" width="98" height="98" rx="15" stroke="white" stroke-opacity="0.28" stroke-width="2"/>
<rect x="480" y="300" width="100" height="100" rx="16" fill="white" fill-opacity="0.15"/>
<rect x="481" y="301" width="98" height="98" rx="15" stroke="white" stroke-opacity="0.28" stroke-width="2"/>
<rect x="140" y="520" width="100" height="100" rx="16" fill="white" fill-opacity="0.15"/>
<rect x="141" y="521" width="98" height="98" rx="15" stroke="white" stroke-opacity="0.28" stroke-width="2"/>
<rect x="260" y="520" width="100" height="100" rx="16" fill="white" fill-opacity="0.15"/>
<rect x="261" y="521" width="98" height="98" rx="15" stroke="white" stroke-opacity="0.28" stroke-width="2"/>
<rect x="380" y="520" width="100" height="100" rx="16" fill="white" fill-opacity="0.15"/>
<rect x="381" y="521" width="98" height="98" rx="15" stroke="white" stroke-opacity="0.28" stroke-width="2"/>
<rect x="40" y="740" width="100" height="100" rx="16" fill="white" fill-opacity="0.15"/>
<rect x="41" y="741" width="98" height="98" rx="15" stroke="white" stroke-opacity="0.28" stroke-width="2"/>
<rect x="77" y="960" width="100" height="100" rx="16" fill="white" fill-opacity="0.15"/>
<rect x="78" y="961" width="98" height="98" rx="15" stroke="white" stroke-opacity="0.28" stroke-width="2"/>
<rect x="260" y="740" width="100" height="100" rx="16" fill="white" fill-opacity="0.15"/>
<rect x="261" y="741" width="98" height="98" rx="15" stroke="white" stroke-opacity="0.28" stroke-width="2"/>
<rect x="449" y="960" width="100" height="100" rx="16" fill="white" fill-opacity="0.15"/>
<rect x="450" y="961" width="98" height="98" rx="15" stroke="white" stroke-opacity="0.28" stroke-width="2"/>
<rect x="480" y="740" width="100" height="100" rx="16" fill="white" fill-opacity="0.15"/>
<rect x="481" y="741" width="98" height="98" rx="15" stroke="white" stroke-opacity="0.28" stroke-width="2"/>
<rect x="263" y="960" width="100" height="100" rx="16" fill="white" fill-opacity="0.15"/>
<rect x="264" y="961" width="98" height="98" rx="15" stroke="white" stroke-opacity="0.28" stroke-width="2"/>
<path d="M27.36 31.18V33.3C26.6933 32.9 25.86 32.7 24.86 32.7C24.4467 32.7 24.12 32.7933 23.88 32.98C23.6533 33.1533 23.54 33.38 23.54 33.66C23.54 33.7667 23.5533 33.8667 23.58 33.96C23.62 34.0533 23.68 34.1467 23.76 34.24C23.8533 34.32 23.94 34.3933 24.02 34.46C24.1 34.5267 24.2133 34.6 24.36 34.68C24.5067 34.7467 24.6333 34.8067 24.74 34.86C24.8467 34.9133 24.9933 34.98 25.18 35.06C25.3667 35.14 25.5133 35.2067 25.62 35.26C26.3267 35.6067 26.8867 35.9933 27.3 36.42C27.7133 36.8467 27.92 37.4 27.92 38.08C27.92 39.0267 27.58 39.7667 26.9 40.3C26.22 40.8333 25.3133 41.1 24.18 41.1C22.9267 41.1 21.9133 40.8933 21.14 40.48V38.28C22.0333 38.88 23 39.18 24.04 39.18C24.48 39.18 24.82 39.1 25.06 38.94C25.3133 38.7667 25.44 38.5333 25.44 38.24C25.44 38.0667 25.4 37.9133 25.32 37.78C25.24 37.6333 25.0867 37.4933 24.86 37.36C24.6333 37.2267 24.4533 37.1333 24.32 37.08C24.2 37.0133 23.9533 36.9 23.58 36.74C23.54 36.7267 23.5067 36.7133 23.48 36.7C23.4667 36.6867 23.44 36.6733 23.4 36.66C23.36 36.6467 23.3267 36.6333 23.3 36.62C21.82 35.9533 21.08 34.9933 21.08 33.74C21.08 32.8067 21.4333 32.0733 22.14 31.54C22.8467 31.0067 23.7333 30.74 24.8 30.74C25.8267 30.74 26.68 30.8867 27.36 31.18ZM32.7552 32.66V37.82C32.7552 38.2467 32.8685 38.5733 33.0952 38.8C33.3218 39.0133 33.6352 39.12 34.0352 39.12C34.5418 39.12 35.0085 38.98 35.4352 38.7V40.76C34.9685 40.9867 34.3685 41.1 33.6352 41.1C31.4485 41.1 30.3552 39.9933 30.3552 37.78V32.66H28.8352V30.86H30.3552V28.42H32.7552V30.86H35.2752V32.66H32.7552ZM42.5933 36.64H41.3533C40.7266 36.64 40.2466 36.7733 39.9133 37.04C39.5799 37.2933 39.4133 37.62 39.4133 38.02C39.4133 38.8733 39.9066 39.3 40.8933 39.3C41.4266 39.3 41.8399 39.1467 42.1333 38.84C42.4399 38.52 42.5933 38.1067 42.5933 37.6V36.64ZM37.6733 33.6V31.38C38.4333 30.9133 39.5266 30.68 40.9533 30.68C43.6999 30.68 45.0733 31.96 45.0733 34.52V41H42.6933V39.78C42.2266 40.6467 41.3466 41.08 40.0533 41.08C39.0933 41.08 38.3266 40.8 37.7533 40.24C37.1933 39.68 36.9133 38.9733 36.9133 38.12C36.9133 37.16 37.2733 36.4067 37.9933 35.86C38.7133 35.3133 39.7533 35.04 41.1133 35.04H42.5933V34.42C42.5933 33.86 42.4466 33.4333 42.1533 33.14C41.8599 32.8467 41.3599 32.7 40.6533 32.7C39.5733 32.7 38.5799 33 37.6733 33.6ZM49.95 30.86V32.66C50.4167 31.4067 51.27 30.78 52.51 30.78C52.79 30.78 53.0167 30.8 53.19 30.84V33.16C52.8833 33.0267 52.5433 32.96 52.17 32.96C51.5167 32.96 50.9833 33.2267 50.57 33.76C50.1567 34.2933 49.95 34.96 49.95 35.76V41H47.53L47.55 30.86H49.95ZM57.5208 32.66V37.82C57.5208 38.2467 57.6341 38.5733 57.8608 38.8C58.0874 39.0133 58.4008 39.12 58.8008 39.12C59.3074 39.12 59.7741 38.98 60.2008 38.7V40.76C59.7341 40.9867 59.1341 41.1 58.4008 41.1C56.2141 41.1 55.1208 39.9933 55.1208 37.78V32.66H53.6008V30.86H55.1208V28.42H57.5208V30.86H60.0408V32.66H57.5208Z" fill="white"/>
<path d="M27.4 255.1V254.8C27.3733 254.147 27.1933 253.627 26.86 253.24C26.54 252.84 26.0667 252.64 25.44 252.64C24.8667 252.64 24.3667 252.853 23.94 253.28C23.5267 253.693 23.26 254.3 23.14 255.1H27.4ZM29.04 258.36V260.44C28.3333 260.88 27.3133 261.1 25.98 261.1C24.3667 261.1 23.0933 260.62 22.16 259.66C21.2267 258.7 20.76 257.46 20.76 255.94C20.76 254.327 21.2 253.06 22.08 252.14C22.96 251.22 24.06 250.76 25.38 250.76C26.7 250.76 27.7467 251.16 28.52 251.96C29.2933 252.76 29.68 253.927 29.68 255.46C29.68 255.833 29.6333 256.313 29.54 256.9H23.18C23.3533 257.633 23.7133 258.193 24.26 258.58C24.82 258.967 25.5133 259.16 26.34 259.16C27.4067 259.16 28.3067 258.893 29.04 258.36ZM34.2859 250.86V252.6C34.8593 251.36 35.8993 250.74 37.4059 250.74C38.4193 250.74 39.2193 251.047 39.8059 251.66C40.3926 252.273 40.6859 253.14 40.6859 254.26V261H38.2859V254.76C38.2859 254.093 38.1259 253.593 37.8059 253.26C37.4859 252.913 37.0526 252.74 36.5059 252.74C35.8793 252.74 35.3526 252.987 34.9259 253.48C34.4993 253.96 34.2859 254.653 34.2859 255.56V261H31.8859V250.86H34.2859ZM47.5545 259.08C48.2745 259.08 48.8745 258.807 49.3545 258.26C49.8345 257.7 50.0745 256.893 50.0745 255.84C50.0745 254.813 49.8212 254.047 49.3145 253.54C48.8079 253.02 48.2279 252.76 47.5745 252.76C46.8812 252.76 46.2945 253.047 45.8145 253.62C45.3479 254.18 45.1145 254.967 45.1145 255.98C45.1145 256.9 45.3479 257.647 45.8145 258.22C46.2812 258.793 46.8612 259.08 47.5545 259.08ZM50.0745 246.86H52.4745V261H50.0745V259.42C49.3812 260.567 48.3545 261.14 46.9945 261.14C45.6612 261.14 44.6012 260.633 43.8145 259.62C43.0412 258.607 42.6545 257.38 42.6545 255.94C42.6545 254.34 43.0612 253.073 43.8745 252.14C44.7012 251.193 45.7545 250.72 47.0345 250.72C48.3545 250.72 49.3679 251.287 50.0745 252.42V246.86Z" fill="white"/>
<path d="M23.22 475.96C23.2467 476.92 23.5333 477.693 24.08 478.28C24.64 478.867 25.3933 479.16 26.34 479.16C27.1667 479.16 27.9333 478.933 28.64 478.48V480.56C27.9333 480.973 27.0533 481.18 26 481.18C24.44 481.18 23.1733 480.687 22.2 479.7C21.24 478.713 20.76 477.467 20.76 475.96C20.7733 474.48 21.2533 473.233 22.2 472.22C23.16 471.207 24.4667 470.7 26.12 470.7C27.1067 470.7 27.9467 470.887 28.64 471.26V473.38C27.9733 472.953 27.2133 472.74 26.36 472.74C25.4267 472.74 24.6733 473.033 24.1 473.62C23.5267 474.207 23.2333 474.987 23.22 475.96ZM36.7945 475.1V474.8C36.7679 474.147 36.5879 473.627 36.2545 473.24C35.9345 472.84 35.4612 472.64 34.8345 472.64C34.2612 472.64 33.7612 472.853 33.3345 473.28C32.9212 473.693 32.6545 474.3 32.5345 475.1H36.7945ZM38.4345 478.36V480.44C37.7279 480.88 36.7079 481.1 35.3745 481.1C33.7612 481.1 32.4879 480.62 31.5545 479.66C30.6212 478.7 30.1545 477.46 30.1545 475.94C30.1545 474.327 30.5945 473.06 31.4745 472.14C32.3545 471.22 33.4545 470.76 34.7745 470.76C36.0945 470.76 37.1412 471.16 37.9145 471.96C38.6879 472.76 39.0745 473.927 39.0745 475.46C39.0745 475.833 39.0279 476.313 38.9345 476.9H32.5745C32.7479 477.633 33.1079 478.193 33.6545 478.58C34.2145 478.967 34.9079 479.16 35.7345 479.16C36.8012 479.16 37.7012 478.893 38.4345 478.36ZM43.6805 470.86V472.6C44.2538 471.36 45.2938 470.74 46.8005 470.74C47.8138 470.74 48.6138 471.047 49.2005 471.66C49.7871 472.273 50.0805 473.14 50.0805 474.26V481H47.6805V474.76C47.6805 474.093 47.5205 473.593 47.2005 473.26C46.8805 472.913 46.4471 472.74 45.9005 472.74C45.2738 472.74 44.7471 472.987 44.3205 473.48C43.8938 473.96 43.6805 474.653 43.6805 475.56V481H41.2805V470.86H43.6805ZM55.5091 472.66V477.82C55.5091 478.247 55.6224 478.573 55.8491 478.8C56.0757 479.013 56.3891 479.12 56.7891 479.12C57.2957 479.12 57.7624 478.98 58.1891 478.7V480.76C57.7224 480.987 57.1224 481.1 56.3891 481.1C54.2024 481.1 53.1091 479.993 53.1091 477.78V472.66H51.5891V470.86H53.1091V468.42H55.5091V470.86H58.0291V472.66H55.5091ZM66.2672 475.1V474.8C66.2405 474.147 66.0605 473.627 65.7272 473.24C65.4072 472.84 64.9339 472.64 64.3072 472.64C63.7339 472.64 63.2339 472.853 62.8072 473.28C62.3939 473.693 62.1272 474.3 62.0072 475.1H66.2672ZM67.9072 478.36V480.44C67.2005 480.88 66.1805 481.1 64.8472 481.1C63.2339 481.1 61.9605 480.62 61.0272 479.66C60.0939 478.7 59.6272 477.46 59.6272 475.94C59.6272 474.327 60.0672 473.06 60.9472 472.14C61.8272 471.22 62.9272 470.76 64.2472 470.76C65.5672 470.76 66.6139 471.16 67.3872 471.96C68.1605 472.76 68.5472 473.927 68.5472 475.46C68.5472 475.833 68.5005 476.313 68.4072 476.9H62.0472C62.2205 477.633 62.5805 478.193 63.1272 478.58C63.6872 478.967 64.3805 479.16 65.2072 479.16C66.2739 479.16 67.1739 478.893 67.9072 478.36ZM73.1531 470.86V472.66C73.6198 471.407 74.4731 470.78 75.7131 470.78C75.9931 470.78 76.2198 470.8 76.3931 470.84V473.16C76.0865 473.027 75.7465 472.96 75.3731 472.96C74.7198 472.96 74.1865 473.227 73.7731 473.76C73.3598 474.293 73.1531 474.96 73.1531 475.76V481H70.7331L70.7531 470.86H73.1531Z" fill="white"/>
<path d="M26.26 699.08C26.9533 699.08 27.5333 698.793 28 698.22C28.4667 697.647 28.7 696.9 28.7 695.98C28.7 694.967 28.46 694.18 27.98 693.62C27.5133 693.047 26.9333 692.76 26.24 692.76C25.5867 692.76 25.0067 693.02 24.5 693.54C23.9933 694.047 23.74 694.813 23.74 695.84C23.74 696.893 23.98 697.7 24.46 698.26C24.94 698.807 25.54 699.08 26.26 699.08ZM23.74 686.86V692.4C24.4467 691.28 25.46 690.72 26.78 690.72C28.0467 690.72 29.0867 691.193 29.9 692.14C30.7267 693.073 31.14 694.34 31.14 695.94C31.14 697.38 30.7467 698.607 29.96 699.62C29.1867 700.633 28.1333 701.14 26.8 701.14C25.4667 701.14 24.4467 700.573 23.74 699.44V701H21.32V686.86H23.74ZM39.2945 695.1V694.8C39.2679 694.147 39.0879 693.627 38.7545 693.24C38.4345 692.84 37.9612 692.64 37.3345 692.64C36.7612 692.64 36.2612 692.853 35.8345 693.28C35.4212 693.693 35.1545 694.3 35.0345 695.1H39.2945ZM40.9345 698.36V700.44C40.2279 700.88 39.2079 701.1 37.8745 701.1C36.2612 701.1 34.9879 700.62 34.0545 699.66C33.1212 698.7 32.6545 697.46 32.6545 695.94C32.6545 694.327 33.0945 693.06 33.9745 692.14C34.8545 691.22 35.9545 690.76 37.2745 690.76C38.5945 690.76 39.6412 691.16 40.4145 691.96C41.1879 692.76 41.5745 693.927 41.5745 695.46C41.5745 695.833 41.5279 696.313 41.4345 696.9H35.0745C35.2479 697.633 35.6079 698.193 36.1545 698.58C36.7145 698.967 37.4079 699.16 38.2345 699.16C39.3012 699.16 40.2012 698.893 40.9345 698.36ZM46.7005 692.66V697.82C46.7005 698.247 46.8138 698.573 47.0405 698.8C47.2671 699.013 47.5805 699.12 47.9805 699.12C48.4871 699.12 48.9538 698.98 49.3805 698.7V700.76C48.9138 700.987 48.3138 701.1 47.5805 701.1C45.3938 701.1 44.3005 699.993 44.3005 697.78V692.66H42.7805V690.86H44.3005V688.42H46.7005V690.86H49.2205V692.66H46.7005ZM53.5186 701L50.3186 690.86H52.8186L53.7386 694.2C54.0053 695.16 54.2253 696.02 54.3986 696.78C54.5853 697.527 54.6986 698.033 54.7386 698.3L54.8186 698.7C54.9519 697.887 55.3386 696.387 55.9786 694.2L56.9586 690.86H59.1386L60.1186 694.2C60.4119 695.187 60.6519 696.06 60.8386 696.82C61.0386 697.567 61.1653 698.067 61.2186 698.32L61.2786 698.72C61.4119 697.933 61.8053 696.427 62.4586 694.2L63.4186 690.86H65.8186L62.5986 701H59.9986L59.0986 697.68C58.8586 696.813 58.6519 696.027 58.4786 695.32C58.3053 694.6 58.1919 694.107 58.1386 693.84L58.0586 693.42C57.8853 694.3 57.5386 695.72 57.0186 697.68L56.1186 701H53.5186ZM73.4742 695.1V694.8C73.4476 694.147 73.2676 693.627 72.9342 693.24C72.6142 692.84 72.1409 692.64 71.5142 692.64C70.9409 692.64 70.4409 692.853 70.0142 693.28C69.6009 693.693 69.3342 694.3 69.2142 695.1H73.4742ZM75.1142 698.36V700.44C74.4076 700.88 73.3876 701.1 72.0542 701.1C70.4409 701.1 69.1676 700.62 68.2342 699.66C67.3009 698.7 66.8342 697.46 66.8342 695.94C66.8342 694.327 67.2742 693.06 68.1542 692.14C69.0342 691.22 70.1342 690.76 71.4542 690.76C72.7742 690.76 73.8209 691.16 74.5942 691.96C75.3676 692.76 75.7542 693.927 75.7542 695.46C75.7542 695.833 75.7076 696.313 75.6142 696.9H69.2542C69.4276 697.633 69.7876 698.193 70.3342 698.58C70.8942 698.967 71.5876 699.16 72.4142 699.16C73.4809 699.16 74.3809 698.893 75.1142 698.36ZM84.0602 695.1V694.8C84.0335 694.147 83.8535 693.627 83.5202 693.24C83.2002 692.84 82.7268 692.64 82.1002 692.64C81.5268 692.64 81.0268 692.853 80.6002 693.28C80.1868 693.693 79.9202 694.3 79.8002 695.1H84.0602ZM85.7002 698.36V700.44C84.9935 700.88 83.9735 701.1 82.6402 701.1C81.0268 701.1 79.7535 700.62 78.8202 699.66C77.8868 698.7 77.4202 697.46 77.4202 695.94C77.4202 694.327 77.8602 693.06 78.7402 692.14C79.6202 691.22 80.7202 690.76 82.0402 690.76C83.3602 690.76 84.4068 691.16 85.1802 691.96C85.9535 692.76 86.3402 693.927 86.3402 695.46C86.3402 695.833 86.2935 696.313 86.2002 696.9H79.8402C80.0135 697.633 80.3735 698.193 80.9202 698.58C81.4802 698.967 82.1735 699.16 83.0002 699.16C84.0668 699.16 84.9668 698.893 85.7002 698.36ZM90.9461 690.86V692.6C91.5194 691.36 92.5594 690.74 94.0661 690.74C95.0794 690.74 95.8794 691.047 96.4661 691.66C97.0528 692.273 97.3461 693.14 97.3461 694.26V701H94.9461V694.76C94.9461 694.093 94.7861 693.593 94.4661 693.26C94.1461 692.913 93.7128 692.74 93.1661 692.74C92.5394 692.74 92.0128 692.987 91.5861 693.48C91.1594 693.96 90.9461 694.653 90.9461 695.56V701H88.5461V690.86H90.9461Z" fill="white"/>
<path d="M26.48 916.64H25.24C24.6133 916.64 24.1333 916.773 23.8 917.04C23.4667 917.293 23.3 917.62 23.3 918.02C23.3 918.873 23.7933 919.3 24.78 919.3C25.3133 919.3 25.7267 919.147 26.02 918.84C26.3267 918.52 26.48 918.107 26.48 917.6V916.64ZM21.56 913.6V911.38C22.32 910.913 23.4133 910.68 24.84 910.68C27.5867 910.68 28.96 911.96 28.96 914.52V921H26.58V919.78C26.1133 920.647 25.2333 921.08 23.94 921.08C22.98 921.08 22.2133 920.8 21.64 920.24C21.08 919.68 20.8 918.973 20.8 918.12C20.8 917.16 21.16 916.407 21.88 915.86C22.6 915.313 23.64 915.04 25 915.04H26.48V914.42C26.48 913.86 26.3333 913.433 26.04 913.14C25.7467 912.847 25.2467 912.7 24.54 912.7C23.46 912.7 22.4667 913 21.56 913.6ZM33.8367 910.86V912.66C34.3034 911.407 35.1567 910.78 36.3967 910.78C36.6767 910.78 36.9034 910.8 37.0767 910.84V913.16C36.7701 913.027 36.4301 912.96 36.0567 912.96C35.4034 912.96 34.8701 913.227 34.4567 913.76C34.0434 914.293 33.8367 914.96 33.8367 915.76V921H31.4167L31.4367 910.86H33.8367ZM42.8275 921.16C41.2942 921.16 40.0942 920.68 39.2275 919.72C38.3742 918.76 37.9475 917.533 37.9475 916.04C37.9475 914.493 38.3942 913.22 39.2875 912.22C40.1808 911.207 41.3608 910.7 42.8275 910.7C44.3875 910.7 45.5942 911.193 46.4475 912.18C47.3008 913.153 47.7275 914.393 47.7275 915.9C47.7275 917.433 47.2942 918.693 46.4275 919.68C45.5742 920.667 44.3742 921.16 42.8275 921.16ZM42.8275 912.66C42.0675 912.66 41.4808 912.973 41.0675 913.6C40.6675 914.227 40.4675 915.013 40.4675 915.96C40.4675 916.893 40.6742 917.673 41.0875 918.3C41.5008 918.927 42.0875 919.24 42.8475 919.24C43.6342 919.24 44.2275 918.933 44.6275 918.32C45.0275 917.707 45.2275 916.927 45.2275 915.98C45.2275 915.007 45.0342 914.213 44.6475 913.6C44.2608 912.973 43.6542 912.66 42.8275 912.66ZM56.0761 910.86H58.4961V921H56.0761V919.34C55.5428 920.513 54.5028 921.1 52.9561 921.1C51.9294 921.1 51.1294 920.807 50.5561 920.22C49.9828 919.633 49.6961 918.8 49.6961 917.72V910.86H52.0961V917.16C52.0961 917.8 52.2494 918.287 52.5561 918.62C52.8761 918.953 53.3094 919.12 53.8561 919.12C54.5494 919.12 55.0894 918.887 55.4761 918.42C55.8761 917.953 56.0761 917.247 56.0761 916.3V910.86ZM63.5047 910.86V912.6C64.078 911.36 65.118 910.74 66.6247 910.74C67.638 910.74 68.438 911.047 69.0247 911.66C69.6114 912.273 69.9047 913.14 69.9047 914.26V921H67.5047V914.76C67.5047 914.093 67.3447 913.593 67.0247 913.26C66.7047 912.913 66.2714 912.74 65.7247 912.74C65.098 912.74 64.5714 912.987 64.1447 913.48C63.718 913.96 63.5047 914.653 63.5047 915.56V921H61.1047V910.86H63.5047ZM76.7733 919.08C77.4933 919.08 78.0933 918.807 78.5733 918.26C79.0533 917.7 79.2933 916.893 79.2933 915.84C79.2933 914.813 79.0399 914.047 78.5333 913.54C78.0266 913.02 77.4466 912.76 76.7933 912.76C76.0999 912.76 75.5133 913.047 75.0333 913.62C74.5666 914.18 74.3333 914.967 74.3333 915.98C74.3333 916.9 74.5666 917.647 75.0333 918.22C75.4999 918.793 76.0799 919.08 76.7733 919.08ZM79.2933 906.86H81.6933V921H79.2933V919.42C78.5999 920.567 77.5733 921.14 76.2133 921.14C74.8799 921.14 73.8199 920.633 73.0333 919.62C72.2599 918.607 71.8733 917.38 71.8733 915.94C71.8733 914.34 72.2799 913.073 73.0933 912.14C73.9199 911.193 74.9733 910.72 76.2533 910.72C77.5733 910.72 78.5866 911.287 79.2933 912.42V906.86Z" fill="white"/>
<defs>
<radialGradient id="paint0_radial_3_17" cx="0" cy="0" r="1" gradientUnits="userSpaceOnUse" gradientTransform="translate(310 130) rotate(90) scale(158.28 417.101)">
<stop stop-color="#3A4248"/>
<stop offset="1" stop-color="#0E0F12"/>
</radialGradient>
<radialGradient id="paint1_radial_3_17" cx="0" cy="0" r="1" gradientUnits="userSpaceOnUse" gradientTransform="translate(310 350) rotate(90) scale(158.28 417.101)">
<stop stop-color="#3A4248"/>
<stop offset="1" stop-color="#0E0F12"/>
</radialGradient>
<radialGradient id="paint2_radial_3_17" cx="0" cy="0" r="1" gradientUnits="userSpaceOnUse" gradientTransform="translate(310 570) rotate(90) scale(158.28 417.101)">
<stop stop-color="#3A4248"/>
<stop offset="1" stop-color="#0E0F12"/>
</radialGradient>
<radialGradient id="paint3_radial_3_17" cx="0" cy="0" r="1" gradientUnits="userSpaceOnUse" gradientTransform="translate(310 790) rotate(90) scale(158.28 417.101)">
<stop stop-color="#3A4248"/>
<stop offset="1" stop-color="#0E0F12"/>
</radialGradient>
<radialGradient id="paint4_radial_3_17" cx="0" cy="0" r="1" gradientUnits="userSpaceOnUse" gradientTransform="translate(310 1010) rotate(90) scale(158.28 417.101)">
<stop stop-color="#3A4248"/>
<stop offset="1" stop-color="#0E0F12"/>
</radialGradient>
</defs>
</svg>
