<svg width="617" height="1122" viewBox="0 0 617 1122" fill="none" xmlns="http://www.w3.org/2000/svg">
<rect width="617" height="1122" rx="16" fill="#161616"/>
<rect x="22" y="62" width="576" height="136" rx="30" fill="url(#paint0_radial_6_39)" stroke="#54585A" stroke-width="4"/>
<rect x="22" y="282" width="576" height="136" rx="30" fill="url(#paint1_radial_6_39)" stroke="#54585A" stroke-width="4"/>
<rect x="22" y="502" width="576" height="136" rx="30" fill="url(#paint2_radial_6_39)" stroke="#54585A" stroke-width="4"/>
<rect x="22" y="722" width="576" height="136" rx="30" fill="url(#paint3_radial_6_39)" stroke="#54585A" stroke-width="4"/>
<rect x="22" y="942" width="576" height="136" rx="30" fill="url(#paint4_radial_6_39)" stroke="#54585A" stroke-width="4"/>
<rect x="40" y="80" width="100" height="60" rx="16" fill="white" fill-opacity="0.15"/>
<rect x="41" y="81" width="98" height="58" rx="15" stroke="white" stroke-opacity="0.28" stroke-width="2"/>
<rect x="40" y="340" width="100" height="60" rx="16" fill="white" fill-opacity="0.15"/>
<rect x="41" y="341" width="98" height="58" rx="15" stroke="white" stroke-opacity="0.28" stroke-width="2"/>
<rect x="40" y="540" width="100" height="60" rx="16" fill="white" fill-opacity="0.15"/>
<rect x="41" y="541" width="98" height="58" rx="15" stroke="white" stroke-opacity="0.28" stroke-width="2"/>
<rect x="40" y="760" width="100" height="60" rx="16" fill="white" fill-opacity="0.15"/>
<rect x="41" y="761" width="98" height="58" rx="15" stroke="white" stroke-opacity="0.28" stroke-width="2"/>
<rect x="40" y="960" width="100" height="100" rx="16" fill="white" fill-opacity="0.15"/>
<rect x="41" y="961" width="98" height="98" rx="15" stroke="white" stroke-opacity="0.28" stroke-width="2"/>
<rect x="160" y="80" width="100" height="100" rx="16" fill="white" fill-opacity="0.15"/>
<rect x="161" y="81" width="98" height="98" rx="15" stroke="white" stroke-opacity="0.28" stroke-width="2"/>
<rect x="160" y="300" width="100" height="100" rx="16" fill="white" fill-opacity="0.15"/>
<rect x="161" y="301" width="98" height="98" rx="15" stroke="white" stroke-opacity="0.28" stroke-width="2"/>
<rect x="160" y="520" width="100" height="100" rx="16" fill="white" fill-opacity="0.15"/>
<rect x="161" y="521" width="98" height="98" rx="15" stroke="white" stroke-opacity="0.28" stroke-width="2"/>
<rect x="160" y="748" width="100" height="92" rx="16" fill="white" fill-opacity="0.15"/>
<rect x="161" y="749" width="98" height="90" rx="15" stroke="white" stroke-opacity="0.28" stroke-width="2"/>
<rect x="160" y="960" width="100" height="100" rx="16" fill="white" fill-opacity="0.15"/>
<rect x="161" y="961" width="98" height="98" rx="15" stroke="white" stroke-opacity="0.28" stroke-width="2"/>
<rect x="280" y="80" width="100" height="80" rx="16" fill="white" fill-opacity="0.15"/>
<rect x="281" y="81" width="98" height="78" rx="15" stroke="white" stroke-opacity="0.28" stroke-width="2"/>
<rect x="280" y="320" width="100" height="80" rx="16" fill="white" fill-opacity="0.15"/>
<rect x="281" y="321" width="98" height="78" rx="15" stroke="white" stroke-opacity="0.28" stroke-width="2"/>
<rect x="280" y="530" width="100" height="80" rx="16" fill="white" fill-opacity="0.15"/>
<rect x="281" y="531" width="98" height="78" rx="15" stroke="white" stroke-opacity="0.28" stroke-width="2"/>
<rect x="280" y="753" width="100" height="80" rx="16" fill="white" fill-opacity="0.15"/>
<rect x="281" y="754" width="98" height="78" rx="15" stroke="white" stroke-opacity="0.28" stroke-width="2"/>
<rect x="280" y="960" width="100" height="100" rx="16" fill="white" fill-opacity="0.15"/>
<rect x="281" y="961" width="98" height="98" rx="15" stroke="white" stroke-opacity="0.28" stroke-width="2"/>
<path d="M27.36 31.18V33.3C26.6933 32.9 25.86 32.7 24.86 32.7C24.4467 32.7 24.12 32.7933 23.88 32.98C23.6533 33.1533 23.54 33.38 23.54 33.66C23.54 33.7667 23.5533 33.8667 23.58 33.96C23.62 34.0533 23.68 34.1467 23.76 34.24C23.8533 34.32 23.94 34.3933 24.02 34.46C24.1 34.5267 24.2133 34.6 24.36 34.68C24.5067 34.7467 24.6333 34.8067 24.74 34.86C24.8467 34.9133 24.9933 34.98 25.18 35.06C25.3667 35.14 25.5133 35.2067 25.62 35.26C26.3267 35.6067 26.8867 35.9933 27.3 36.42C27.7133 36.8467 27.92 37.4 27.92 38.08C27.92 39.0267 27.58 39.7667 26.9 40.3C26.22 40.8333 25.3133 41.1 24.18 41.1C22.9267 41.1 21.9133 40.8933 21.14 40.48V38.28C22.0333 38.88 23 39.18 24.04 39.18C24.48 39.18 24.82 39.1 25.06 38.94C25.3133 38.7667 25.44 38.5333 25.44 38.24C25.44 38.0667 25.4 37.9133 25.32 37.78C25.24 37.6333 25.0867 37.4933 24.86 37.36C24.6333 37.2267 24.4533 37.1333 24.32 37.08C24.2 37.0133 23.9533 36.9 23.58 36.74C23.54 36.7267 23.5067 36.7133 23.48 36.7C23.4667 36.6867 23.44 36.6733 23.4 36.66C23.36 36.6467 23.3267 36.6333 23.3 36.62C21.82 35.9533 21.08 34.9933 21.08 33.74C21.08 32.8067 21.4333 32.0733 22.14 31.54C22.8467 31.0067 23.7333 30.74 24.8 30.74C25.8267 30.74 26.68 30.8867 27.36 31.18ZM32.7552 32.66V37.82C32.7552 38.2467 32.8685 38.5733 33.0952 38.8C33.3218 39.0133 33.6352 39.12 34.0352 39.12C34.5418 39.12 35.0085 38.98 35.4352 38.7V40.76C34.9685 40.9867 34.3685 41.1 33.6352 41.1C31.4485 41.1 30.3552 39.9933 30.3552 37.78V32.66H28.8352V30.86H30.3552V28.42H32.7552V30.86H35.2752V32.66H32.7552ZM42.5933 36.64H41.3533C40.7266 36.64 40.2466 36.7733 39.9133 37.04C39.5799 37.2933 39.4133 37.62 39.4133 38.02C39.4133 38.8733 39.9066 39.3 40.8933 39.3C41.4266 39.3 41.8399 39.1467 42.1333 38.84C42.4399 38.52 42.5933 38.1067 42.5933 37.6V36.64ZM37.6733 33.6V31.38C38.4333 30.9133 39.5266 30.68 40.9533 30.68C43.6999 30.68 45.0733 31.96 45.0733 34.52V41H42.6933V39.78C42.2266 40.6467 41.3466 41.08 40.0533 41.08C39.0933 41.08 38.3266 40.8 37.7533 40.24C37.1933 39.68 36.9133 38.9733 36.9133 38.12C36.9133 37.16 37.2733 36.4067 37.9933 35.86C38.7133 35.3133 39.7533 35.04 41.1133 35.04H42.5933V34.42C42.5933 33.86 42.4466 33.4333 42.1533 33.14C41.8599 32.8467 41.3599 32.7 40.6533 32.7C39.5733 32.7 38.5799 33 37.6733 33.6ZM49.95 30.86V32.66C50.4167 31.4067 51.27 30.78 52.51 30.78C52.79 30.78 53.0167 30.8 53.19 30.84V33.16C52.8833 33.0267 52.5433 32.96 52.17 32.96C51.5167 32.96 50.9833 33.2267 50.57 33.76C50.1567 34.2933 49.95 34.96 49.95 35.76V41H47.53L47.55 30.86H49.95ZM57.5208 32.66V37.82C57.5208 38.2467 57.6341 38.5733 57.8608 38.8C58.0874 39.0133 58.4008 39.12 58.8008 39.12C59.3074 39.12 59.7741 38.98 60.2008 38.7V40.76C59.7341 40.9867 59.1341 41.1 58.4008 41.1C56.2141 41.1 55.1208 39.9933 55.1208 37.78V32.66H53.6008V30.86H55.1208V28.42H57.5208V30.86H60.0408V32.66H57.5208Z" fill="white"/>
<path d="M27.4 255.1V254.8C27.3733 254.147 27.1933 253.627 26.86 253.24C26.54 252.84 26.0667 252.64 25.44 252.64C24.8667 252.64 24.3667 252.853 23.94 253.28C23.5267 253.693 23.26 254.3 23.14 255.1H27.4ZM29.04 258.36V260.44C28.3333 260.88 27.3133 261.1 25.98 261.1C24.3667 261.1 23.0933 260.62 22.16 259.66C21.2267 258.7 20.76 257.46 20.76 255.94C20.76 254.327 21.2 253.06 22.08 252.14C22.96 251.22 24.06 250.76 25.38 250.76C26.7 250.76 27.7467 251.16 28.52 251.96C29.2933 252.76 29.68 253.927 29.68 255.46C29.68 255.833 29.6333 256.313 29.54 256.9H23.18C23.3533 257.633 23.7133 258.193 24.26 258.58C24.82 258.967 25.5133 259.16 26.34 259.16C27.4067 259.16 28.3067 258.893 29.04 258.36ZM34.2859 250.86V252.6C34.8593 251.36 35.8993 250.74 37.4059 250.74C38.4193 250.74 39.2193 251.047 39.8059 251.66C40.3926 252.273 40.6859 253.14 40.6859 254.26V261H38.2859V254.76C38.2859 254.093 38.1259 253.593 37.8059 253.26C37.4859 252.913 37.0526 252.74 36.5059 252.74C35.8793 252.74 35.3526 252.987 34.9259 253.48C34.4993 253.96 34.2859 254.653 34.2859 255.56V261H31.8859V250.86H34.2859ZM47.5545 259.08C48.2745 259.08 48.8745 258.807 49.3545 258.26C49.8345 257.7 50.0745 256.893 50.0745 255.84C50.0745 254.813 49.8212 254.047 49.3145 253.54C48.8079 253.02 48.2279 252.76 47.5745 252.76C46.8812 252.76 46.2945 253.047 45.8145 253.62C45.3479 254.18 45.1145 254.967 45.1145 255.98C45.1145 256.9 45.3479 257.647 45.8145 258.22C46.2812 258.793 46.8612 259.08 47.5545 259.08ZM50.0745 246.86H52.4745V261H50.0745V259.42C49.3812 260.567 48.3545 261.14 46.9945 261.14C45.6612 261.14 44.6012 260.633 43.8145 259.62C43.0412 258.607 42.6545 257.38 42.6545 255.94C42.6545 254.34 43.0612 253.073 43.8745 252.14C44.7012 251.193 45.7545 250.72 47.0345 250.72C48.3545 250.72 49.3679 251.287 50.0745 252.42V246.86Z" fill="white"/>
<path d="M23.22 475.96C23.2467 476.92 23.5333 477.693 24.08 478.28C24.64 478.867 25.3933 479.16 26.34 479.16C27.1667 479.16 27.9333 478.933 28.64 478.48V480.56C27.9333 480.973 27.0533 481.18 26 481.18C24.44 481.18 23.1733 480.687 22.2 479.7C21.24 478.713 20.76 477.467 20.76 475.96C20.7733 474.48 21.2533 473.233 22.2 472.22C23.16 471.207 24.4667 470.7 26.12 470.7C27.1067 470.7 27.9467 470.887 28.64 471.26V473.38C27.9733 472.953 27.2133 472.74 26.36 472.74C25.4267 472.74 24.6733 473.033 24.1 473.62C23.5267 474.207 23.2333 474.987 23.22 475.96ZM36.7945 475.1V474.8C36.7679 474.147 36.5879 473.627 36.2545 473.24C35.9345 472.84 35.4612 472.64 34.8345 472.64C34.2612 472.64 33.7612 472.853 33.3345 473.28C32.9212 473.693 32.6545 474.3 32.5345 475.1H36.7945ZM38.4345 478.36V480.44C37.7279 480.88 36.7079 481.1 35.3745 481.1C33.7612 481.1 32.4879 480.62 31.5545 479.66C30.6212 478.7 30.1545 477.46 30.1545 475.94C30.1545 474.327 30.5945 473.06 31.4745 472.14C32.3545 471.22 33.4545 470.76 34.7745 470.76C36.0945 470.76 37.1412 471.16 37.9145 471.96C38.6879 472.76 39.0745 473.927 39.0745 475.46C39.0745 475.833 39.0279 476.313 38.9345 476.9H32.5745C32.7479 477.633 33.1079 478.193 33.6545 478.58C34.2145 478.967 34.9079 479.16 35.7345 479.16C36.8012 479.16 37.7012 478.893 38.4345 478.36ZM43.6805 470.86V472.6C44.2538 471.36 45.2938 470.74 46.8005 470.74C47.8138 470.74 48.6138 471.047 49.2005 471.66C49.7871 472.273 50.0805 473.14 50.0805 474.26V481H47.6805V474.76C47.6805 474.093 47.5205 473.593 47.2005 473.26C46.8805 472.913 46.4471 472.74 45.9005 472.74C45.2738 472.74 44.7471 472.987 44.3205 473.48C43.8938 473.96 43.6805 474.653 43.6805 475.56V481H41.2805V470.86H43.6805ZM55.5091 472.66V477.82C55.5091 478.247 55.6224 478.573 55.8491 478.8C56.0757 479.013 56.3891 479.12 56.7891 479.12C57.2957 479.12 57.7624 478.98 58.1891 478.7V480.76C57.7224 480.987 57.1224 481.1 56.3891 481.1C54.2024 481.1 53.1091 479.993 53.1091 477.78V472.66H51.5891V470.86H53.1091V468.42H55.5091V470.86H58.0291V472.66H55.5091ZM66.2672 475.1V474.8C66.2405 474.147 66.0605 473.627 65.7272 473.24C65.4072 472.84 64.9339 472.64 64.3072 472.64C63.7339 472.64 63.2339 472.853 62.8072 473.28C62.3939 473.693 62.1272 474.3 62.0072 475.1H66.2672ZM67.9072 478.36V480.44C67.2005 480.88 66.1805 481.1 64.8472 481.1C63.2339 481.1 61.9605 480.62 61.0272 479.66C60.0939 478.7 59.6272 477.46 59.6272 475.94C59.6272 474.327 60.0672 473.06 60.9472 472.14C61.8272 471.22 62.9272 470.76 64.2472 470.76C65.5672 470.76 66.6139 471.16 67.3872 471.96C68.1605 472.76 68.5472 473.927 68.5472 475.46C68.5472 475.833 68.5005 476.313 68.4072 476.9H62.0472C62.2205 477.633 62.5805 478.193 63.1272 478.58C63.6872 478.967 64.3805 479.16 65.2072 479.16C66.2739 479.16 67.1739 478.893 67.9072 478.36ZM73.1531 470.86V472.66C73.6198 471.407 74.4731 470.78 75.7131 470.78C75.9931 470.78 76.2198 470.8 76.3931 470.84V473.16C76.0865 473.027 75.7465 472.96 75.3731 472.96C74.7198 472.96 74.1865 473.227 73.7731 473.76C73.3598 474.293 73.1531 474.96 73.1531 475.76V481H70.7331L70.7531 470.86H73.1531Z" fill="white"/>
<path d="M26.26 699.08C26.9533 699.08 27.5333 698.793 28 698.22C28.4667 697.647 28.7 696.9 28.7 695.98C28.7 694.967 28.46 694.18 27.98 693.62C27.5133 693.047 26.9333 692.76 26.24 692.76C25.5867 692.76 25.0067 693.02 24.5 693.54C23.9933 694.047 23.74 694.813 23.74 695.84C23.74 696.893 23.98 697.7 24.46 698.26C24.94 698.807 25.54 699.08 26.26 699.08ZM23.74 686.86V692.4C24.4467 691.28 25.46 690.72 26.78 690.72C28.0467 690.72 29.0867 691.193 29.9 692.14C30.7267 693.073 31.14 694.34 31.14 695.94C31.14 697.38 30.7467 698.607 29.96 699.62C29.1867 700.633 28.1333 701.14 26.8 701.14C25.4667 701.14 24.4467 700.573 23.74 699.44V701H21.32V686.86H23.74ZM38.3745 696.64H37.1345C36.5079 696.64 36.0279 696.773 35.6945 697.04C35.3612 697.293 35.1945 697.62 35.1945 698.02C35.1945 698.873 35.6879 699.3 36.6745 699.3C37.2079 699.3 37.6212 699.147 37.9145 698.84C38.2212 698.52 38.3745 698.107 38.3745 697.6V696.64ZM33.4545 693.6V691.38C34.2145 690.913 35.3079 690.68 36.7345 690.68C39.4812 690.68 40.8545 691.96 40.8545 694.52V701H38.4745V699.78C38.0079 700.647 37.1279 701.08 35.8345 701.08C34.8745 701.08 34.1079 700.8 33.5345 700.24C32.9745 699.68 32.6945 698.973 32.6945 698.12C32.6945 697.16 33.0545 696.407 33.7745 695.86C34.4945 695.313 35.5345 695.04 36.8945 695.04H38.3745V694.42C38.3745 693.86 38.2279 693.433 37.9345 693.14C37.6412 692.847 37.1412 692.7 36.4345 692.7C35.3545 692.7 34.3612 693 33.4545 693.6ZM49.3913 691.18V693.3C48.7246 692.9 47.8913 692.7 46.8913 692.7C46.4779 692.7 46.1513 692.793 45.9113 692.98C45.6846 693.153 45.5713 693.38 45.5713 693.66C45.5713 693.767 45.5846 693.867 45.6113 693.96C45.6513 694.053 45.7113 694.147 45.7913 694.24C45.8846 694.32 45.9713 694.393 46.0513 694.46C46.1313 694.527 46.2446 694.6 46.3913 694.68C46.5379 694.747 46.6646 694.807 46.7713 694.86C46.8779 694.913 47.0246 694.98 47.2113 695.06C47.3979 695.14 47.5446 695.207 47.6513 695.26C48.3579 695.607 48.9179 695.993 49.3313 696.42C49.7446 696.847 49.9513 697.4 49.9513 698.08C49.9513 699.027 49.6113 699.767 48.9313 700.3C48.2513 700.833 47.3446 701.1 46.2113 701.1C44.9579 701.1 43.9446 700.893 43.1713 700.48V698.28C44.0646 698.88 45.0313 699.18 46.0713 699.18C46.5113 699.18 46.8513 699.1 47.0913 698.94C47.3446 698.767 47.4713 698.533 47.4713 698.24C47.4713 698.067 47.4313 697.913 47.3513 697.78C47.2713 697.633 47.1179 697.493 46.8913 697.36C46.6646 697.227 46.4846 697.133 46.3513 697.08C46.2313 697.013 45.9846 696.9 45.6113 696.74C45.5713 696.727 45.5379 696.713 45.5113 696.7C45.4979 696.687 45.4713 696.673 45.4313 696.66C45.3913 696.647 45.3579 696.633 45.3313 696.62C43.8513 695.953 43.1113 694.993 43.1113 693.74C43.1113 692.807 43.4646 692.073 44.1713 691.54C44.8779 691.007 45.7646 690.74 46.8313 690.74C47.8579 690.74 48.7113 690.887 49.3913 691.18ZM57.9664 695.1V694.8C57.9397 694.147 57.7597 693.627 57.4264 693.24C57.1064 692.84 56.6331 692.64 56.0064 692.64C55.4331 692.64 54.9331 692.853 54.5064 693.28C54.0931 693.693 53.8264 694.3 53.7064 695.1H57.9664ZM59.6064 698.36V700.44C58.8997 700.88 57.8797 701.1 56.5464 701.1C54.9331 701.1 53.6597 700.62 52.7264 699.66C51.7931 698.7 51.3264 697.46 51.3264 695.94C51.3264 694.327 51.7664 693.06 52.6464 692.14C53.5264 691.22 54.6264 690.76 55.9464 690.76C57.2664 690.76 58.3131 691.16 59.0864 691.96C59.8597 692.76 60.2464 693.927 60.2464 695.46C60.2464 695.833 60.1997 696.313 60.1064 696.9H53.7464C53.9197 697.633 54.2797 698.193 54.8264 698.58C55.3864 698.967 56.0797 699.16 56.9064 699.16C57.9731 699.16 58.8731 698.893 59.6064 698.36ZM62.5523 701V686.86H64.9523V701H62.5523ZM67.7477 701V690.86H70.1477V701H67.7477ZM67.5077 687.82C67.5077 687.42 67.6477 687.08 67.9277 686.8C68.2077 686.52 68.5477 686.38 68.9477 686.38C69.3477 686.38 69.6877 686.52 69.9677 686.8C70.2477 687.08 70.3877 687.42 70.3877 687.82C70.3877 688.233 70.2477 688.58 69.9677 688.86C69.6877 689.14 69.3477 689.28 68.9477 689.28C68.5477 689.28 68.2077 689.14 67.9277 688.86C67.6477 688.58 67.5077 688.233 67.5077 687.82ZM75.243 690.86V692.6C75.8163 691.36 76.8563 690.74 78.363 690.74C79.3763 690.74 80.1763 691.047 80.763 691.66C81.3496 692.273 81.643 693.14 81.643 694.26V701H79.243V694.76C79.243 694.093 79.083 693.593 78.763 693.26C78.443 692.913 78.0096 692.74 77.463 692.74C76.8363 692.74 76.3096 692.987 75.883 693.48C75.4563 693.96 75.243 694.653 75.243 695.56V701H72.843V690.86H75.243ZM90.2516 695.1V694.8C90.2249 694.147 90.0449 693.627 89.7116 693.24C89.3916 692.84 88.9182 692.64 88.2916 692.64C87.7182 692.64 87.2182 692.853 86.7916 693.28C86.3782 693.693 86.1116 694.3 85.9916 695.1H90.2516ZM91.8916 698.36V700.44C91.1849 700.88 90.1649 701.1 88.8316 701.1C87.2182 701.1 85.9449 700.62 85.0116 699.66C84.0782 698.7 83.6116 697.46 83.6116 695.94C83.6116 694.327 84.0516 693.06 84.9316 692.14C85.8116 691.22 86.9116 690.76 88.2316 690.76C89.5516 690.76 90.5982 691.16 91.3716 691.96C92.1449 692.76 92.5316 693.927 92.5316 695.46C92.5316 695.833 92.4849 696.313 92.3916 696.9H86.0316C86.2049 697.633 86.5649 698.193 87.1116 698.58C87.6716 698.967 88.3649 699.16 89.1916 699.16C90.2582 699.16 91.1582 698.893 91.8916 698.36Z" fill="white"/>
<path d="M27.36 911.18V913.3C26.6933 912.9 25.86 912.7 24.86 912.7C24.4467 912.7 24.12 912.793 23.88 912.98C23.6533 913.153 23.54 913.38 23.54 913.66C23.54 913.767 23.5533 913.867 23.58 913.96C23.62 914.053 23.68 914.147 23.76 914.24C23.8533 914.32 23.94 914.393 24.02 914.46C24.1 914.527 24.2133 914.6 24.36 914.68C24.5067 914.747 24.6333 914.807 24.74 914.86C24.8467 914.913 24.9933 914.98 25.18 915.06C25.3667 915.14 25.5133 915.207 25.62 915.26C26.3267 915.607 26.8867 915.993 27.3 916.42C27.7133 916.847 27.92 917.4 27.92 918.08C27.92 919.027 27.58 919.767 26.9 920.3C26.22 920.833 25.3133 921.1 24.18 921.1C22.9267 921.1 21.9133 920.893 21.14 920.48V918.28C22.0333 918.88 23 919.18 24.04 919.18C24.48 919.18 24.82 919.1 25.06 918.94C25.3133 918.767 25.44 918.533 25.44 918.24C25.44 918.067 25.4 917.913 25.32 917.78C25.24 917.633 25.0867 917.493 24.86 917.36C24.6333 917.227 24.4533 917.133 24.32 917.08C24.2 917.013 23.9533 916.9 23.58 916.74C23.54 916.727 23.5067 916.713 23.48 916.7C23.4667 916.687 23.44 916.673 23.4 916.66C23.36 916.647 23.3267 916.633 23.3 916.62C21.82 915.953 21.08 914.993 21.08 913.74C21.08 912.807 21.4333 912.073 22.14 911.54C22.8467 911.007 23.7333 910.74 24.8 910.74C25.8267 910.74 26.68 910.887 27.36 911.18ZM32.7552 912.66V917.82C32.7552 918.247 32.8685 918.573 33.0952 918.8C33.3218 919.013 33.6352 919.12 34.0352 919.12C34.5418 919.12 35.0085 918.98 35.4352 918.7V920.76C34.9685 920.987 34.3685 921.1 33.6352 921.1C31.4485 921.1 30.3552 919.993 30.3552 917.78V912.66H28.8352V910.86H30.3552V908.42H32.7552V910.86H35.2752V912.66H32.7552ZM39.8133 910.86V912.66C40.2799 911.407 41.1333 910.78 42.3733 910.78C42.6533 910.78 42.8799 910.8 43.0533 910.84V913.16C42.7466 913.027 42.4066 912.96 42.0333 912.96C41.3799 912.96 40.8466 913.227 40.4333 913.76C40.0199 914.293 39.8133 914.96 39.8133 915.76V921H37.3933L37.4133 910.86H39.8133ZM50.5641 915.1V914.8C50.5374 914.147 50.3574 913.627 50.0241 913.24C49.7041 912.84 49.2307 912.64 48.6041 912.64C48.0307 912.64 47.5307 912.853 47.1041 913.28C46.6907 913.693 46.4241 914.3 46.3041 915.1H50.5641ZM52.2041 918.36V920.44C51.4974 920.88 50.4774 921.1 49.1441 921.1C47.5307 921.1 46.2574 920.62 45.3241 919.66C44.3907 918.7 43.9241 917.46 43.9241 915.94C43.9241 914.327 44.3641 913.06 45.2441 912.14C46.1241 911.22 47.2241 910.76 48.5441 910.76C49.8641 910.76 50.9107 911.16 51.6841 911.96C52.4574 912.76 52.8441 913.927 52.8441 915.46C52.8441 915.833 52.7974 916.313 52.7041 916.9H46.3441C46.5174 917.633 46.8774 918.193 47.4241 918.58C47.9841 918.967 48.6774 919.16 49.5041 919.16C50.5707 919.16 51.4707 918.893 52.2041 918.36ZM57.97 912.66V917.82C57.97 918.247 58.0833 918.573 58.31 918.8C58.5367 919.013 58.85 919.12 59.25 919.12C59.7567 919.12 60.2233 918.98 60.65 918.7V920.76C60.1833 920.987 59.5833 921.1 58.85 921.1C56.6633 921.1 55.57 919.993 55.57 917.78V912.66H54.05V910.86H55.57V908.42H57.97V910.86H60.49V912.66H57.97ZM64.5481 915.96C64.5748 916.92 64.8615 917.693 65.4081 918.28C65.9681 918.867 66.7215 919.16 67.6681 919.16C68.4948 919.16 69.2615 918.933 69.9681 918.48V920.56C69.2615 920.973 68.3815 921.18 67.3281 921.18C65.7681 921.18 64.5015 920.687 63.5281 919.7C62.5681 918.713 62.0881 917.467 62.0881 915.96C62.1015 914.48 62.5815 913.233 63.5281 912.22C64.4881 911.207 65.7948 910.7 67.4481 910.7C68.4348 910.7 69.2748 910.887 69.9681 911.26V913.38C69.3015 912.953 68.5415 912.74 67.6881 912.74C66.7548 912.74 66.0015 913.033 65.4281 913.62C64.8548 914.207 64.5615 914.987 64.5481 915.96ZM74.4227 906.86V912.58C74.9693 911.353 76.0027 910.74 77.5227 910.74C78.5093 910.74 79.3027 911.053 79.9027 911.68C80.516 912.293 80.8227 913.187 80.8227 914.36V921H78.4227V914.78C78.4227 914.14 78.256 913.64 77.9227 913.28C77.6027 912.92 77.1827 912.74 76.6627 912.74C76.0893 912.74 75.5693 912.96 75.1027 913.4C74.6493 913.84 74.4227 914.56 74.4227 915.56V921H72.0227V906.86H74.4227Z" fill="white"/>
<path d="M53.6913 778.638H56.8473V779.982H52.1793V771.894H53.6913V778.638ZM60.5358 780.078C59.6158 780.078 58.8958 779.79 58.3758 779.214C57.8638 778.638 57.6078 777.902 57.6078 777.006C57.6078 776.078 57.8758 775.314 58.4118 774.714C58.9478 774.106 59.6558 773.802 60.5358 773.802C61.4718 773.802 62.1958 774.098 62.7078 774.69C63.2198 775.274 63.4758 776.018 63.4758 776.922C63.4758 777.842 63.2158 778.598 62.6958 779.19C62.1838 779.782 61.4638 780.078 60.5358 780.078ZM60.5358 774.978C60.0798 774.978 59.7278 775.166 59.4798 775.542C59.2398 775.918 59.1198 776.39 59.1198 776.958C59.1198 777.518 59.2438 777.986 59.4918 778.362C59.7398 778.738 60.0918 778.926 60.5478 778.926C61.0198 778.926 61.3758 778.742 61.6158 778.374C61.8558 778.006 61.9758 777.538 61.9758 776.97C61.9758 776.386 61.8598 775.91 61.6278 775.542C61.3958 775.166 61.0318 774.978 60.5358 774.978ZM66.157 773.898V774.978C66.437 774.226 66.949 773.85 67.693 773.85C67.861 773.85 67.997 773.862 68.101 773.886V775.278C67.917 775.198 67.713 775.158 67.489 775.158C67.097 775.158 66.777 775.318 66.529 775.638C66.281 775.958 66.157 776.358 66.157 776.838V779.982H64.705L64.717 773.898H66.157ZM72.6074 776.442V776.262C72.5914 775.87 72.4834 775.558 72.2834 775.326C72.0914 775.086 71.8074 774.966 71.4314 774.966C71.0874 774.966 70.7874 775.094 70.5314 775.35C70.2834 775.598 70.1234 775.962 70.0514 776.442H72.6074ZM73.5914 778.398V779.646C73.1674 779.91 72.5554 780.042 71.7554 780.042C70.7874 780.042 70.0234 779.754 69.4634 779.178C68.9034 778.602 68.6234 777.858 68.6234 776.946C68.6234 775.978 68.8874 775.218 69.4154 774.666C69.9434 774.114 70.6034 773.838 71.3954 773.838C72.1874 773.838 72.8154 774.078 73.2794 774.558C73.7434 775.038 73.9754 775.738 73.9754 776.658C73.9754 776.882 73.9474 777.17 73.8914 777.522H70.0754C70.1794 777.962 70.3954 778.298 70.7234 778.53C71.0594 778.762 71.4754 778.878 71.9714 778.878C72.6114 778.878 73.1514 778.718 73.5914 778.398ZM76.739 773.898V774.858C77.083 774.17 77.655 773.826 78.455 773.826C79.343 773.826 79.919 774.21 80.183 774.978C80.343 774.61 80.583 774.326 80.903 774.126C81.223 773.926 81.587 773.826 81.995 773.826C82.611 773.826 83.087 774.014 83.423 774.39C83.759 774.758 83.927 775.286 83.927 775.974V779.982H82.475V776.25C82.475 775.434 82.163 775.026 81.539 775.026C81.227 775.026 80.947 775.162 80.699 775.434C80.459 775.706 80.339 776.134 80.339 776.718V779.982H78.887V776.25C78.887 775.434 78.575 775.026 77.951 775.026C77.639 775.026 77.359 775.162 77.111 775.434C76.863 775.706 76.739 776.134 76.739 776.718V779.982H75.299V773.898H76.739Z" fill="white"/>
<path d="M175.033 779.999V763.823H176.521V779.999H175.033ZM185.532 778.799C186.62 778.799 187.516 778.367 188.22 777.503C188.924 776.623 189.276 775.375 189.276 773.759C189.276 772.367 188.932 771.231 188.244 770.351C187.572 769.471 186.716 769.031 185.676 769.031C184.636 769.031 183.74 769.415 182.988 770.183C182.236 770.935 181.86 772.199 181.86 773.975C181.86 774.871 181.98 775.655 182.22 776.327C182.476 776.983 182.796 777.487 183.18 777.839C183.58 778.175 183.972 778.423 184.356 778.583C184.756 778.727 185.148 778.799 185.532 778.799ZM181.86 767.831V769.607C182.708 768.295 183.964 767.639 185.628 767.639C187.26 767.639 188.532 768.239 189.444 769.439C190.356 770.623 190.812 772.071 190.812 773.783C190.812 775.671 190.324 777.215 189.348 778.415C188.372 779.599 187.116 780.191 185.58 780.191C183.996 780.191 182.756 779.519 181.86 778.175V784.799H180.396V767.831H181.86ZM200.068 768.263V769.727C199.316 769.295 198.3 769.079 197.02 769.079C196.316 769.079 195.756 769.247 195.34 769.583C194.94 769.903 194.74 770.327 194.74 770.855C194.74 771.175 194.796 771.455 194.908 771.695C195.036 771.935 195.244 772.159 195.532 772.367C195.836 772.559 196.092 772.703 196.3 772.799C196.508 772.895 196.844 773.039 197.308 773.231C198.428 773.679 199.284 774.175 199.876 774.719C200.484 775.247 200.788 775.967 200.788 776.879C200.788 777.887 200.436 778.687 199.732 779.279C199.044 779.855 198.092 780.143 196.876 780.143C195.404 780.143 194.22 779.903 193.324 779.423V777.911C194.396 778.519 195.548 778.823 196.78 778.823C197.596 778.823 198.212 778.655 198.628 778.319C199.06 777.983 199.276 777.543 199.276 776.999C199.276 776.359 199.052 775.863 198.604 775.511C198.172 775.159 197.452 774.783 196.444 774.383C195.468 773.999 194.692 773.551 194.116 773.039C193.54 772.527 193.252 771.823 193.252 770.927C193.252 769.951 193.612 769.175 194.332 768.599C195.052 768.007 195.956 767.711 197.044 767.711C198.356 767.711 199.364 767.895 200.068 768.263ZM211.042 767.831H212.506V779.999H211.042V777.815C210.402 779.383 209.114 780.167 207.178 780.167C205.994 780.167 205.05 779.815 204.346 779.111C203.658 778.391 203.314 777.447 203.314 776.279V767.831H204.778V775.871C204.778 776.799 205.018 777.511 205.498 778.007C205.994 778.503 206.642 778.751 207.442 778.751C208.514 778.751 209.378 778.367 210.034 777.599C210.706 776.831 211.042 775.831 211.042 774.599V767.831ZM217.625 767.831V769.823C218.313 768.367 219.449 767.639 221.033 767.639C222.985 767.639 224.185 768.439 224.633 770.039C225.385 768.439 226.585 767.639 228.233 767.639C229.513 767.639 230.465 767.999 231.089 768.719C231.713 769.423 232.025 770.351 232.025 771.503V779.999H230.561V771.959C230.561 770.023 229.713 769.055 228.017 769.055C227.185 769.055 226.441 769.439 225.785 770.207C225.145 770.975 224.825 771.999 224.825 773.279V779.999H223.361V771.959C223.361 770.023 222.513 769.055 220.817 769.055C219.985 769.055 219.241 769.439 218.585 770.207C217.945 770.975 217.625 771.999 217.625 773.279V779.999H216.161V767.831H217.625Z" fill="white"/>
<path d="M295.209 777.984H296.329C297.321 777.984 298.083 777.675 298.617 777.056C299.161 776.437 299.433 775.563 299.433 774.432C299.433 773.472 299.161 772.704 298.617 772.128C298.073 771.541 297.305 771.248 296.313 771.248H295.209V777.984ZM292.681 769.216H296.393C298.014 769.216 299.342 769.717 300.377 770.72C301.411 771.712 301.929 772.949 301.929 774.432C301.929 776.16 301.417 777.52 300.393 778.512C299.379 779.504 298.035 780 296.361 780H292.681V769.216ZM307.107 780.128C305.837 780.128 304.856 779.749 304.163 778.992C303.469 778.224 303.123 777.243 303.123 776.048C303.123 774.8 303.485 773.776 304.211 772.976C304.936 772.165 305.901 771.76 307.107 771.76C308.365 771.76 309.341 772.149 310.035 772.928C310.728 773.707 311.075 774.699 311.075 775.904C311.075 777.131 310.723 778.144 310.019 778.944C309.325 779.733 308.355 780.128 307.107 780.128ZM307.091 773.6C306.579 773.6 306.195 773.819 305.939 774.256C305.683 774.693 305.555 775.259 305.555 775.952C305.555 776.645 305.683 777.216 305.939 777.664C306.205 778.101 306.6 778.32 307.123 778.32C307.635 778.32 308.013 778.107 308.259 777.68C308.515 777.243 308.643 776.677 308.643 775.984C308.643 774.395 308.125 773.6 307.091 773.6ZM312.681 780V768.688H315.017V780H312.681ZM320.607 780.128C319.337 780.128 318.356 779.749 317.663 778.992C316.969 778.224 316.623 777.243 316.623 776.048C316.623 774.8 316.985 773.776 317.711 772.976C318.436 772.165 319.401 771.76 320.607 771.76C321.865 771.76 322.841 772.149 323.535 772.928C324.228 773.707 324.575 774.699 324.575 775.904C324.575 777.131 324.223 778.144 323.519 778.944C322.825 779.733 321.855 780.128 320.607 780.128ZM320.591 773.6C320.079 773.6 319.695 773.819 319.439 774.256C319.183 774.693 319.055 775.259 319.055 775.952C319.055 776.645 319.183 777.216 319.439 777.664C319.705 778.101 320.1 778.32 320.623 778.32C321.135 778.32 321.513 778.107 321.759 777.68C322.015 777.243 322.143 776.677 322.143 775.984C322.143 774.395 321.625 773.6 320.591 773.6ZM328.421 771.888V773.392C328.57 772.923 328.815 772.549 329.157 772.272C329.509 771.984 329.914 771.84 330.373 771.84C330.629 771.84 330.831 771.861 330.981 771.904V774.112C330.725 773.995 330.431 773.936 330.101 773.936C329.599 773.936 329.194 774.123 328.885 774.496C328.575 774.859 328.421 775.344 328.421 775.952V780H326.085L326.101 771.888H328.421Z" fill="white"/>
<defs>
<radialGradient id="paint0_radial_6_39" cx="0" cy="0" r="1" gradientUnits="userSpaceOnUse" gradientTransform="translate(310 130) rotate(90) scale(158.28 417.101)">
<stop stop-color="#3A4248"/>
<stop offset="1" stop-color="#0E0F12"/>
</radialGradient>
<radialGradient id="paint1_radial_6_39" cx="0" cy="0" r="1" gradientUnits="userSpaceOnUse" gradientTransform="translate(310 350) rotate(90) scale(158.28 417.101)">
<stop stop-color="#3A4248"/>
<stop offset="1" stop-color="#0E0F12"/>
</radialGradient>
<radialGradient id="paint2_radial_6_39" cx="0" cy="0" r="1" gradientUnits="userSpaceOnUse" gradientTransform="translate(310 570) rotate(90) scale(158.28 417.101)">
<stop stop-color="#3A4248"/>
<stop offset="1" stop-color="#0E0F12"/>
</radialGradient>
<radialGradient id="paint3_radial_6_39" cx="0" cy="0" r="1" gradientUnits="userSpaceOnUse" gradientTransform="translate(310 790) rotate(90) scale(158.28 417.101)">
<stop stop-color="#3A4248"/>
<stop offset="1" stop-color="#0E0F12"/>
</radialGradient>
<radialGradient id="paint4_radial_6_39" cx="0" cy="0" r="1" gradientUnits="userSpaceOnUse" gradientTransform="translate(310 1010) rotate(90) scale(158.28 417.101)">
<stop stop-color="#3A4248"/>
<stop offset="1" stop-color="#0E0F12"/>
</radialGradient>
</defs>
</svg>
